<svg xmlns="http://www.w3.org/2000/svg" viewBox="0 0 1359 1322" width="1359" height="1322">
	<defs>
		<clipPath clipPathUnits="userSpaceOnUse" id="cp1">
			<path d="M0 0L1359 0L1359 1322L0 1322Z" />
		</clipPath>
		<linearGradient id="grd1" gradientUnits="userSpaceOnUse"  x1="271.887" y1="639.611" x2="289.197" y2="723.472">
			<stop offset="0" stop-color="#aff57a"  />
			<stop offset="1" stop-color="#54d169"  />
		</linearGradient>
		<linearGradient id="grd2" gradientUnits="userSpaceOnUse"  x1="275.266" y1="614.051" x2="298.541" y2="699.395">
			<stop offset="0" stop-color="#aff57a"  />
			<stop offset="1" stop-color="#54d169"  />
		</linearGradient>
		<linearGradient id="grd3" gradientUnits="userSpaceOnUse"  x1="275.284" y1="672.336" x2="302.74" y2="750.228">
			<stop offset="0" stop-color="#aff57a"  />
			<stop offset="1" stop-color="#54d169"  />
		</linearGradient>
		<linearGradient id="grd4" gradientUnits="userSpaceOnUse"  x1="1202.051" y1="822.24" x2="1219.36" y2="906.099">
			<stop offset="0" stop-color="#aff57a"  />
			<stop offset="1" stop-color="#54d169"  />
		</linearGradient>
		<linearGradient id="grd5" gradientUnits="userSpaceOnUse"  x1="1205.43" y1="796.678" x2="1228.708" y2="882.03">
			<stop offset="0" stop-color="#aff57a"  />
			<stop offset="1" stop-color="#54d169"  />
		</linearGradient>
		<linearGradient id="grd6" gradientUnits="userSpaceOnUse"  x1="1205.449" y1="854.969" x2="1232.903" y2="932.855">
			<stop offset="0" stop-color="#aff57a"  />
			<stop offset="1" stop-color="#54d169"  />
		</linearGradient>
		<linearGradient id="grd7" gradientUnits="userSpaceOnUse"  x1="938.168" y1="992.219" x2="868.261" y2="1146.016">
			<stop offset="0" stop-color="#15eded"  />
			<stop offset="1" stop-color="#029cf5"  />
		</linearGradient>
		<linearGradient id="grd8" gradientUnits="userSpaceOnUse"  x1="927.327" y1="1062.108" x2="896.593" y2="1130.231">
			<stop offset="0" stop-color="#46eeaa"  />
			<stop offset="1" stop-color="#2cbfc7"  />
		</linearGradient>
		<linearGradient id="grd9" gradientUnits="userSpaceOnUse"  x1="138.439" y1="755.309" x2="112.475" y2="662.495">
			<stop offset="0" stop-color="#f8a980"  />
			<stop offset="1" stop-color="#ffdf75"  />
		</linearGradient>
		<linearGradient id="grd10" gradientUnits="userSpaceOnUse"  x1="65.434" y1="999.176" x2="7.108" y2="814.772">
			<stop offset="0" stop-color="#f8a980"  />
			<stop offset="1" stop-color="#ffdf75"  />
		</linearGradient>
		<linearGradient id="grd11" gradientUnits="userSpaceOnUse"  x1="95.874" y1="1008.424" x2="37.55" y2="824.026">
			<stop offset="0" stop-color="#f8a980"  />
			<stop offset="1" stop-color="#ffdf75"  />
		</linearGradient>
		<linearGradient id="grd12" gradientUnits="userSpaceOnUse"  x1="20.809" y1="725.92" x2="5.477" y2="726.612">
			<stop offset="0" stop-color="#f8a980"  />
			<stop offset="1" stop-color="#ffdf75"  />
		</linearGradient>
		<linearGradient id="grd13" gradientUnits="userSpaceOnUse"  x1="-3.912" y1="679.431" x2="24.58" y2="678.58">
			<stop offset="0" stop-color="#46eeaa"  />
			<stop offset="1" stop-color="#2cbfc7"  />
		</linearGradient>
		<linearGradient id="grd14" gradientUnits="userSpaceOnUse"  x1="-2.769" y1="627.308" x2="101.522" y2="866.019">
			<stop offset="0" stop-color="#46eeaa"  />
			<stop offset="1" stop-color="#2cbfc7"  />
		</linearGradient>
		<linearGradient id="grd15" gradientUnits="userSpaceOnUse"  x1="118.216" y1="620.644" x2="115.306" y2="726.286">
			<stop offset="0" stop-color="#15eded"  />
			<stop offset="1" stop-color="#029cf5"  />
		</linearGradient>
		<linearGradient id="grd16" gradientUnits="userSpaceOnUse"  x1="69.644" y1="672.06" x2="124.669" y2="739.194">
			<stop offset="0" stop-color="#46eeaa"  />
			<stop offset="1" stop-color="#2cbfc7"  />
		</linearGradient>
		<linearGradient id="grd17" gradientUnits="userSpaceOnUse"  x1="63.051" y1="644.923" x2="47.259" y2="609.419">
			<stop offset="0" stop-color="#f8a980"  />
			<stop offset="1" stop-color="#ffdf75"  />
		</linearGradient>
		<linearGradient id="grd18" gradientUnits="userSpaceOnUse"  x1="73.006" y1="627.774" x2="73.628" y2="547.808">
			<stop offset="0" stop-color="#f8a980"  />
			<stop offset="1" stop-color="#ffdf75"  />
		</linearGradient>
		<linearGradient id="grd19" gradientUnits="userSpaceOnUse"  x1="53.093" y1="557.215" x2="71.975" y2="609.337">
			<stop offset="0" stop-color="#2c4755"  />
			<stop offset="1" stop-color="#334752"  />
		</linearGradient>
		<linearGradient id="grd20" gradientUnits="userSpaceOnUse"  x1="29.429" y1="567.462" x2="64.347" y2="595.815">
			<stop offset="0" stop-color="#ff7c6e"  />
			<stop offset="1" stop-color="#f5317f"  />
		</linearGradient>
		<linearGradient id="grd21" gradientUnits="userSpaceOnUse"  x1="32.349" y1="604.905" x2="41.121" y2="661.043">
			<stop offset="0" stop-color="#2c4755"  />
			<stop offset="1" stop-color="#334752"  />
		</linearGradient>
		<linearGradient id="grd22" gradientUnits="userSpaceOnUse"  x1="857.763" y1="212.953" x2="755.802" y2="483.061">
			<stop offset="0" stop-color="#15eded"  />
			<stop offset="1" stop-color="#029cf5"  />
		</linearGradient>
		<linearGradient id="grd23" gradientUnits="userSpaceOnUse"  x1="810.725" y1="296.226" x2="770.44" y2="485.12">
			<stop offset="0" stop-color="#15eded"  />
			<stop offset="1" stop-color="#029cf5"  />
		</linearGradient>
		<linearGradient id="grd24" gradientUnits="userSpaceOnUse"  x1="683.78" y1="555.311" x2="683.024" y2="730.519">
			<stop offset="0" stop-color="#46eeaa"  />
			<stop offset="1" stop-color="#2cbfc7"  />
		</linearGradient>
		<linearGradient id="grd25" gradientUnits="userSpaceOnUse"  x1="668.969" y1="643.01" x2="708.276" y2="823.67">
			<stop offset="0" stop-color="#46eeaa"  />
			<stop offset="1" stop-color="#2cbfc7"  />
		</linearGradient>
		<linearGradient id="grd26" gradientUnits="userSpaceOnUse"  x1="638.124" y1="407.583" x2="637.368" y2="582.794">
			<stop offset="0" stop-color="#ff7c6e"  />
			<stop offset="1" stop-color="#f5317f"  />
		</linearGradient>
		<linearGradient id="grd27" gradientUnits="userSpaceOnUse"  x1="623.312" y1="495.289" x2="662.62" y2="675.956">
			<stop offset="0" stop-color="#ff7c6e"  />
			<stop offset="1" stop-color="#f5317f"  />
		</linearGradient>
		<linearGradient id="grd28" gradientUnits="userSpaceOnUse"  x1="662.271" y1="-6.148" x2="564.753" y2="176.798">
			<stop offset="0" stop-color="#46eeaa"  />
			<stop offset="1" stop-color="#2cbfc7"  />
		</linearGradient>
		<linearGradient id="grd29" gradientUnits="userSpaceOnUse"  x1="568.502" y1="113.453" x2="543.282" y2="388.387">
			<stop offset="0" stop-color="#46eeaa"  />
			<stop offset="1" stop-color="#2cbfc7"  />
		</linearGradient>
		<linearGradient id="grd30" gradientUnits="userSpaceOnUse"  x1="436.018" y1="583.694" x2="517.592" y2="566.092">
			<stop offset="0" stop-color="#f8a980"  />
			<stop offset="1" stop-color="#ffdf75"  />
		</linearGradient>
		<linearGradient id="grd31" gradientUnits="userSpaceOnUse"  x1="440.043" y1="543.965" x2="480.893" y2="543.965">
			<stop offset="0" stop-color="#aff57a"  />
			<stop offset="1" stop-color="#54d169"  />
		</linearGradient>
		<linearGradient id="grd32" gradientUnits="userSpaceOnUse"  x1="454.513" y1="887.107" x2="490.173" y2="887.107">
			<stop offset="0" stop-color="#334752"  />
			<stop offset="1" stop-color="#6a6d89"  />
		</linearGradient>
		<linearGradient id="grd33" gradientUnits="userSpaceOnUse"  x1="305.349" y1="831.313" x2="587.686" y2="718.643">
			<stop offset="0" stop-color="#15eded"  />
			<stop offset="1" stop-color="#029cf5"  />
		</linearGradient>
		<linearGradient id="grd34" gradientUnits="userSpaceOnUse"  x1="520.189" y1="520.084" x2="504.091" y2="487.449">
			<stop offset="0" stop-color="#f8a980"  />
			<stop offset="1" stop-color="#ffdf75"  />
		</linearGradient>
		<linearGradient id="grd35" gradientUnits="userSpaceOnUse"  x1="503.223" y1="488.398" x2="550.943" y2="457.91">
			<stop offset="0" stop-color="#f8a980"  />
			<stop offset="1" stop-color="#ffdf75"  />
		</linearGradient>
		<linearGradient id="grd36" gradientUnits="userSpaceOnUse"  x1="546.677" y1="928.866" x2="543.96" y2="914.482">
			<stop offset="0" stop-color="#334752"  />
			<stop offset="1" stop-color="#6a6d89"  />
		</linearGradient>
		<linearGradient id="grd37" gradientUnits="userSpaceOnUse"  x1="665.635" y1="959.789" x2="433.149" y2="653.989">
			<stop offset="0" stop-color="#15eded"  />
			<stop offset="1" stop-color="#029cf5"  />
		</linearGradient>
		<linearGradient id="grd38" gradientUnits="userSpaceOnUse"  x1="480.2" y1="478.055" x2="526.595" y2="663.635">
			<stop offset="0" stop-color="#aff57a"  />
			<stop offset="1" stop-color="#54d169"  />
		</linearGradient>
		<linearGradient id="grd39" gradientUnits="userSpaceOnUse"  x1="570.046" y1="600.378" x2="683.412" y2="584.489">
			<stop offset="0" stop-color="#f8a980"  />
			<stop offset="1" stop-color="#ffdf75"  />
		</linearGradient>
		<linearGradient id="grd40" gradientUnits="userSpaceOnUse"  x1="584.752" y1="612.773" x2="531.314" y2="523.387">
			<stop offset="0" stop-color="#aff57a"  />
			<stop offset="1" stop-color="#54d169"  />
		</linearGradient>
		<linearGradient id="grd41" gradientUnits="userSpaceOnUse"  x1="857.32" y1="905.528" x2="779.962" y2="848.454">
			<stop offset="0" stop-color="#f8a980"  />
			<stop offset="1" stop-color="#ffdf75"  />
		</linearGradient>
		<linearGradient id="grd42" gradientUnits="userSpaceOnUse"  x1="869.724" y1="862.851" x2="829.027" y2="844.524">
			<stop offset="0" stop-color="#edf2f6"  />
			<stop offset="1" stop-color="#c3d0d8"  />
		</linearGradient>
		<linearGradient id="grd43" gradientUnits="userSpaceOnUse"  x1="872.628" y1="1233.784" x2="832.413" y2="1233.784">
			<stop offset="0" stop-color="#334752"  />
			<stop offset="1" stop-color="#6a6d89"  />
		</linearGradient>
		<linearGradient id="grd44" gradientUnits="userSpaceOnUse"  x1="1040.857" y1="1170.867" x2="722.439" y2="1043.799">
			<stop offset="0" stop-color="#ffe600"  />
			<stop offset="1" stop-color="#ffc400"  />
		</linearGradient>
		<linearGradient id="grd45" gradientUnits="userSpaceOnUse"  x1="798.562" y1="819.868" x2="816.716" y2="783.066">
			<stop offset="0" stop-color="#f8a980"  />
			<stop offset="1" stop-color="#ffdf75"  />
		</linearGradient>
		<linearGradient id="grd46" gradientUnits="userSpaceOnUse"  x1="817.697" y1="784.131" x2="763.878" y2="749.746">
			<stop offset="0" stop-color="#f8a980"  />
			<stop offset="1" stop-color="#ffdf75"  />
		</linearGradient>
		<linearGradient id="grd47" gradientUnits="userSpaceOnUse"  x1="768.685" y1="1280.882" x2="771.748" y2="1264.663">
			<stop offset="0" stop-color="#334752"  />
			<stop offset="1" stop-color="#6a6d89"  />
		</linearGradient>
		<linearGradient id="grd48" gradientUnits="userSpaceOnUse"  x1="771.77" y1="1112.434" x2="846.773" y2="1112.434">
			<stop offset="0" stop-color="#ffe600"  />
			<stop offset="1" stop-color="#ffc400"  />
		</linearGradient>
		<linearGradient id="grd49" gradientUnits="userSpaceOnUse"  x1="767.206" y1="835.206" x2="923.581" y2="1021.806">
			<stop offset="0" stop-color="#edf2f6"  />
			<stop offset="1" stop-color="#c3d0d8"  />
		</linearGradient>
		<linearGradient id="grd50" gradientUnits="userSpaceOnUse"  x1="775.848" y1="902.193" x2="733.929" y2="1047.799">
			<stop offset="0" stop-color="#f8a980"  />
			<stop offset="1" stop-color="#ffdf75"  />
		</linearGradient>
		<linearGradient id="grd51" gradientUnits="userSpaceOnUse"  x1="747.174" y1="835.939" x2="815.14" y2="946.09">
			<stop offset="0" stop-color="#edf2f6"  />
			<stop offset="1" stop-color="#c3d0d8"  />
		</linearGradient>
		<linearGradient id="grd52" gradientUnits="userSpaceOnUse"  x1="550.771" y1="1072.785" x2="537.191" y2="1216.611">
			<stop offset="0" stop-color="#ffdf40"  />
			<stop offset="1" stop-color="#ff8359"  />
		</linearGradient>
		<linearGradient id="grd53" gradientUnits="userSpaceOnUse"  x1="544.973" y1="1141.538" x2="526.461" y2="1252.612">
			<stop offset="0" stop-color="#ffdf40"  />
			<stop offset="1" stop-color="#ff8359"  />
		</linearGradient>
		<linearGradient id="grd54" gradientUnits="userSpaceOnUse"  x1="568.35" y1="1075.411" x2="562.795" y2="1224.156">
			<stop offset="0" stop-color="#aff57a"  />
			<stop offset="1" stop-color="#54d169"  />
		</linearGradient>
		<linearGradient id="grd55" gradientUnits="userSpaceOnUse"  x1="602.202" y1="1073.459" x2="502.666" y2="1259.371">
			<stop offset="0" stop-color="#aff57a"  />
			<stop offset="1" stop-color="#54d169"  />
		</linearGradient>
		<linearGradient id="grd56" gradientUnits="userSpaceOnUse"  x1="574.16" y1="991.708" x2="550.288" y2="1148.934">
			<stop offset="0" stop-color="#15eded"  />
			<stop offset="1" stop-color="#029cf5"  />
		</linearGradient>
		<linearGradient id="grd57" gradientUnits="userSpaceOnUse"  x1="579.589" y1="1044.253" x2="507.174" y2="1249.98">
			<stop offset="0" stop-color="#15eded"  />
			<stop offset="1" stop-color="#029cf5"  />
		</linearGradient>
		<linearGradient id="grd58" gradientUnits="userSpaceOnUse"  x1="259.137" y1="924.928" x2="274.9" y2="1019.504">
			<stop offset="0" stop-color="#edf2f6"  />
			<stop offset="1" stop-color="#e6e4eb"  />
		</linearGradient>
		<linearGradient id="grd59" gradientUnits="userSpaceOnUse"  x1="248.891" y1="891.456" x2="265.595" y2="987.887">
			<stop offset="0" stop-color="#edf2f6"  />
			<stop offset="1" stop-color="#e6e4eb"  />
		</linearGradient>
		<linearGradient id="grd60" gradientUnits="userSpaceOnUse"  x1="81.575" y1="1102.023" x2="72.561" y2="1156.112">
			<stop offset="0" stop-color="#edf2f6"  />
			<stop offset="1" stop-color="#e6e4eb"  />
		</linearGradient>
		<linearGradient id="grd61" gradientUnits="userSpaceOnUse"  x1="76.422" y1="1054.574" x2="90.1" y2="1131.591">
			<stop offset="0" stop-color="#aff57a"  />
			<stop offset="1" stop-color="#54d169"  />
		</linearGradient>
		<linearGradient id="grd62" gradientUnits="userSpaceOnUse"  x1="92.505" y1="1048.939" x2="74.372" y2="1164.572">
			<stop offset="0" stop-color="#aff57a"  />
			<stop offset="1" stop-color="#54d169"  />
		</linearGradient>
		<linearGradient id="grd63" gradientUnits="userSpaceOnUse"  x1="383.014" y1="1038.512" x2="375.375" y2="1084.348">
			<stop offset="0" stop-color="#edf2f6"  />
			<stop offset="1" stop-color="#e6e4eb"  />
		</linearGradient>
		<linearGradient id="grd64" gradientUnits="userSpaceOnUse"  x1="378.649" y1="998.303" x2="390.24" y2="1063.567">
			<stop offset="0" stop-color="#59c2ff"  />
			<stop offset="1" stop-color="#1270e3"  />
		</linearGradient>
		<linearGradient id="grd65" gradientUnits="userSpaceOnUse"  x1="392.277" y1="993.526" x2="376.91" y2="1091.52">
			<stop offset="0" stop-color="#59c2ff"  />
			<stop offset="1" stop-color="#1270e3"  />
		</linearGradient>
	</defs>
	<style>
		tspan { white-space:pre }
		.shp0 { opacity: 0.102;fill: #334752 } 
		.shp1 { fill: #e6e4eb } 
		.shp2 { fill: #314584 } 
		.shp3 { fill: #5767c7 } 
		.shp4 { fill: #c7e6ff } 
		.shp5 { fill: #5768c8 } 
		.shp6 { fill: #334787 } 
		.shp7 { fill: #c3d0d8 } 
		.shp8 { fill: #edf2f6 } 
		.shp9 { opacity: 0.2;fill: #334752 } 
		.shp10 { fill: url(#grd1) } 
		.shp11 { fill: url(#grd2) } 
		.shp12 { fill: url(#grd3) } 
		.shp13 { fill: url(#grd4) } 
		.shp14 { fill: url(#grd5) } 
		.shp15 { fill: url(#grd6) } 
		.shp16 { fill: url(#grd7) } 
		.shp17 { fill: #ffe600 } 
		.shp18 { fill: url(#grd8) } 
		.shp19 { fill: url(#grd9) } 
		.shp20 { fill: url(#grd10) } 
		.shp21 { fill: #2c4755 } 
		.shp22 { fill: url(#grd11) } 
		.shp23 { fill: url(#grd12) } 
		.shp24 { fill: url(#grd13) } 
		.shp25 { fill: url(#grd14) } 
		.shp26 { fill: url(#grd15) } 
		.shp27 { fill: url(#grd16) } 
		.shp28 { fill: url(#grd17) } 
		.shp29 { fill: url(#grd18) } 
		.shp30 { fill: url(#grd19) } 
		.shp31 { fill: url(#grd20) } 
		.shp32 { fill: url(#grd21) } 
		.shp33 { fill: #6a6d89 } 
		.shp34 { fill: url(#grd22) } 
		.shp35 { fill: url(#grd23) } 
		.shp36 { fill: url(#grd24) } 
		.shp37 { fill: url(#grd25) } 
		.shp38 { fill: url(#grd26) } 
		.shp39 { fill: url(#grd27) } 
		.shp40 { fill: url(#grd28) } 
		.shp41 { fill: url(#grd29) } 
		.shp42 { fill: #ffffff } 
		.shp43 { fill: url(#grd30) } 
		.shp44 { fill: url(#grd31) } 
		.shp45 { fill: url(#grd32) } 
		.shp46 { fill: #131316 } 
		.shp47 { fill: url(#grd33) } 
		.shp48 { fill: url(#grd34) } 
		.shp49 { fill: url(#grd35) } 
		.shp50 { fill: url(#grd36) } 
		.shp51 { fill: url(#grd37) } 
		.shp52 { fill: url(#grd38) } 
		.shp53 { fill: #334752 } 
		.shp54 { fill: url(#grd39) } 
		.shp55 { fill: url(#grd40) } 
		.shp56 { fill: url(#grd41) } 
		.shp57 { fill: url(#grd42) } 
		.shp58 { fill: url(#grd43) } 
		.shp59 { fill: url(#grd44) } 
		.shp60 { fill: url(#grd45) } 
		.shp61 { fill: url(#grd46) } 
		.shp62 { fill: url(#grd47) } 
		.shp63 { fill: url(#grd48) } 
		.shp64 { fill: url(#grd49) } 
		.shp65 { fill: #6a3c20 } 
		.shp66 { fill: url(#grd50) } 
		.shp67 { fill: url(#grd51) } 
		.shp68 { fill: url(#grd52) } 
		.shp69 { fill: url(#grd53) } 
		.shp70 { fill: url(#grd54) } 
		.shp71 { fill: url(#grd55) } 
		.shp72 { fill: url(#grd56) } 
		.shp73 { fill: url(#grd57) } 
		.shp74 { fill: url(#grd58) } 
		.shp75 { fill: url(#grd59) } 
		.shp76 { fill: url(#grd60) } 
		.txt77 { font-size: 117px;line-height: 96px;fill: #314584;font-weight: 600;font-family: "WorkSans-SemiBold", "Work Sans" } 
		.shp78 { fill: url(#grd61) } 
		.shp79 { fill: url(#grd62) } 
		.shp80 { fill: url(#grd63) } 
		.shp81 { fill: url(#grd64) } 
		.shp82 { fill: url(#grd65) } 
	</style>
	<g id="Page 1" clip-path="url(#cp1)">
		<path id="Path 1" class="shp0" d="M1029.23 511.55C1001.86 495.85 957.49 496.59 930.63 513.17L562.85 740.4C536 756.99 536.43 783.39 563.82 799.09L872.57 976C899.95 991.7 944.32 990.96 971.17 974.38L1338.95 747.15C1365.8 730.57 1365.36 704.15 1337.98 688.46L1029.23 511.55Z" />
		<path id="Path 2" class="shp1" d="M927.45 190.27L601.8 2.86C597.91 0.61 594.28 -0.07 591.28 0.6C583.96 1.61 574.64 7.43 563.85 13.08C563.81 13.11 563.78 13.14 563.74 13.16C560.28 15.08 558.11 19.27 558.11 25.27L558.11 758.71C558.11 770.53 566.49 785.03 576.73 790.92L902.38 978.33C905.79 980.29 908.98 981.04 911.74 980.76C916.77 980.6 923.1 978.51 931.09 974.56C937.93 970.9 941.22 968.1 942.81 966.15C942.91 966.04 943 965.91 943.1 965.79C943.11 965.77 943.13 965.75 943.14 965.74C944.99 963.47 946.07 960.15 946.07 955.93L946.07 222.48C946.07 210.66 937.69 196.17 927.45 190.27Z" />
		<path id="Path 3" class="shp2" d="M921 234.12C921 222.3 912.62 207.81 902.38 201.91L576.73 14.5C566.49 8.6 558.11 13.45 558.11 25.27L558.11 758.71C558.11 770.53 566.49 785.03 576.73 790.92L902.38 978.33C912.62 984.23 921 979.38 921 967.57L921 234.12Z" />
		<path id="Path 4" class="shp3" d="M713.06 822.9C709.13 820.63 705.91 822.5 705.91 827.04L705.91 842.08C705.91 846.63 709.13 852.2 713.06 854.46L751.58 876.63C755.51 878.89 758.73 877.03 758.73 872.49L758.73 857.44C758.73 852.9 755.51 847.33 751.58 845.06L713.06 822.9Z" />
		<path id="Path 5" class="shp4" d="M576.29 67.97C572.03 65.51 568.54 67.53 568.54 72.45L568.54 715.28C568.54 720.2 572.03 726.24 576.29 728.7L900.99 915.56C905.26 918.01 908.75 916 908.75 911.07L908.75 268.25C908.75 263.33 905.26 257.29 900.99 254.83L576.29 67.97Z" />
		<path id="Path 6" class="shp5" d="M695.35 102.06C692.45 100.39 690.07 101.77 690.07 105.11L690.07 110.38C690.07 113.72 692.45 117.82 695.35 119.49L786.57 171.99C789.47 173.66 791.84 172.29 791.84 168.94L791.84 163.68C791.84 160.33 789.47 156.23 786.57 154.56L695.35 102.06Z" />
		<path id="Path 7" class="shp6" d="M925.16 535.6C925.16 539.89 928.15 541.56 931.8 539.31L934.63 537.57C938.29 535.32 941.28 529.97 941.28 525.69L941.28 495.09C941.28 490.8 938.29 489.13 934.63 491.38L931.8 493.12C928.15 495.37 925.16 500.72 925.16 505L925.16 535.6ZM721.69 76.7C718.25 74.72 712.67 74.81 709.29 76.88L708.69 77.25C705.31 79.33 705.36 82.66 708.8 84.64L781.94 126.73C785.38 128.71 790.96 128.63 794.35 126.55L794.94 126.18C798.32 124.1 798.27 120.78 794.83 118.8L721.69 76.7ZM925.16 439.02C925.16 443.31 928.15 444.98 931.8 442.73L934.63 440.98C938.29 438.74 941.28 433.39 941.28 429.1L941.28 306.6C941.28 302.31 938.29 300.64 934.63 302.89L931.8 304.63C928.15 306.88 925.16 312.23 925.16 316.51L925.16 439.02Z" />
		<path id="Path 8" class="shp5" d="M587.9 60.24C591.7 66.09 598.02 68.73 602 66.14C605.98 63.55 606.14 56.7 602.33 50.86C598.53 45.01 592.22 42.37 588.23 44.96C584.24 47.55 584.1 54.39 587.9 60.24ZM611.4 72.42C612.37 73.91 613.99 74.59 615 73.92C616.03 73.26 616.06 71.51 615.09 70.02C614.12 68.52 612.5 67.85 611.48 68.51C610.47 69.17 610.43 70.92 611.4 72.42ZM888.13 231.46C889.57 233.67 891.95 234.67 893.46 233.68C894.97 232.71 895.03 230.12 893.59 227.91C892.15 225.7 889.76 224.7 888.26 225.68C886.75 226.66 886.69 229.25 888.13 231.46Z" />
		<path id="Path 9" class="shp0" d="M334.94 774.42C334.94 792.22 310.09 806.65 279.44 806.65C248.78 806.65 223.93 792.22 223.93 774.42C223.93 756.62 248.78 742.19 279.44 742.19C310.09 742.19 334.94 756.62 334.94 774.42Z" />
		<path id="Path 10" class="shp7" d="M330.72 716.79L306.22 714.77L288.76 713.2L252.84 714.33L230 715.89L226.31 718.35L232.74 771.08C232.74 771.1 232.73 771.12 232.73 771.14C232.73 785.83 253.24 797.74 278.54 797.74C303.06 797.74 323.08 786.55 324.29 772.49C324.31 772.46 324.35 772.41 324.35 772.41L330.72 716.79Z" />
		<path id="Path 11" class="shp8" d="M330.74 717.76C330.74 732.88 307.37 745.14 278.54 745.14C249.7 745.14 226.34 732.88 226.34 717.76C226.34 702.64 249.7 690.38 278.54 690.38C307.37 690.38 330.74 702.64 330.74 717.76Z" />
		<path id="Path 12" class="shp9" d="M312.56 717.76C312.56 727.61 297.33 735.6 278.54 735.6C259.75 735.6 244.52 727.61 244.52 717.76C244.52 707.9 259.75 699.91 278.54 699.91C297.33 699.91 312.56 707.9 312.56 717.76Z" />
		<path id="Path 13" class="shp10" d="M248.13 627.4L248.1 627.4L248.1 717.54L248.12 717.54C248.12 717.62 248.1 717.68 248.1 717.76C248.1 726.57 261.73 733.73 278.54 733.73C295.35 733.73 308.98 726.57 308.98 717.76C308.98 717.68 308.96 717.62 308.96 717.54L308.98 717.54L308.98 627.4L308.95 627.4C308.59 610.91 295.12 597.64 278.54 597.64C261.95 597.64 248.5 610.91 248.13 627.4Z" />
		<path id="Path 14" class="shp11" d="M248.13 627.4L248.1 627.4L248.1 628.05C251.24 630.15 255.19 631.78 260.6 634.06C279.1 641.82 289.25 634.06 298.2 642.11C301.92 645.46 305.69 649.44 308.98 653.57L308.98 627.4L308.95 627.4C308.59 610.91 295.12 597.64 278.54 597.64C261.95 597.64 248.5 610.91 248.13 627.4Z" />
		<path id="Path 15" class="shp12" d="M289.84 665.39C265.67 672.26 264.18 688.37 248.66 698.82C248.46 698.95 248.29 699.06 248.1 699.19L248.1 717.54L248.12 717.54C248.12 717.62 248.1 717.68 248.1 717.76C248.1 726.57 261.73 733.73 278.54 733.73C295.35 733.73 308.98 726.57 308.98 717.76C308.98 717.68 308.96 717.62 308.96 717.54L308.98 717.54L308.98 643.91C306.94 652.96 303.29 661.58 289.84 665.39Z" />
		<path id="Path 16" class="shp0" d="M1265.1 957.05C1265.1 974.85 1240.25 989.28 1209.6 989.28C1178.95 989.28 1154.1 974.85 1154.1 957.05C1154.1 939.25 1178.95 924.82 1209.6 924.82C1240.25 924.82 1265.1 939.25 1265.1 957.05Z" />
		<path id="Path 17" class="shp7" d="M1260.89 899.42L1236.38 897.4L1218.92 895.83L1183 896.95L1160.17 898.52L1156.48 900.98L1162.9 953.71L1162.9 953.77C1162.9 968.46 1183.41 980.37 1208.71 980.37C1233.23 980.37 1253.25 969.18 1254.45 955.11C1254.48 955.09 1254.51 955.03 1254.51 955.03L1260.89 899.42Z" />
		<path id="Path 18" class="shp8" d="M1260.91 900.39C1260.91 915.51 1237.54 927.77 1208.71 927.77C1179.87 927.77 1156.5 915.51 1156.5 900.39C1156.5 885.26 1179.87 873.01 1208.71 873.01C1237.54 873.01 1260.91 885.26 1260.91 900.39Z" />
		<path id="Path 19" class="shp9" d="M1242.72 900.39C1242.72 910.24 1227.49 918.23 1208.71 918.23C1189.91 918.23 1174.68 910.24 1174.68 900.39C1174.68 890.53 1189.91 882.54 1208.71 882.54C1227.49 882.54 1242.72 890.53 1242.72 900.39Z" />
		<path id="Path 20" class="shp13" d="M1178.29 810.03L1178.26 810.03L1178.26 900.17L1178.29 900.17C1178.29 900.24 1178.26 900.31 1178.26 900.39C1178.26 909.2 1191.9 916.35 1208.71 916.35C1225.52 916.35 1239.15 909.2 1239.15 900.39C1239.15 900.31 1239.12 900.24 1239.12 900.17L1239.15 900.17L1239.15 810.03L1239.11 810.03C1238.75 793.53 1225.29 780.26 1208.71 780.26C1192.12 780.26 1178.66 793.53 1178.29 810.03Z" />
		<path id="Path 21" class="shp14" d="M1178.29 810.03L1178.26 810.03L1178.26 810.68C1181.41 812.79 1185.36 814.42 1190.76 816.69C1209.27 824.44 1219.41 816.69 1228.37 824.74C1232.09 828.09 1235.86 832.06 1239.15 836.2L1239.15 810.03L1239.11 810.03C1238.75 793.53 1225.29 780.26 1208.71 780.26C1192.12 780.26 1178.66 793.53 1178.29 810.03Z" />
		<path id="Path 22" class="shp15" d="M1220.01 848.02C1195.84 854.89 1194.34 871 1178.83 881.44C1178.63 881.57 1178.46 881.69 1178.26 881.82L1178.26 900.17L1178.29 900.17C1178.29 900.24 1178.26 900.31 1178.26 900.39C1178.26 909.2 1191.9 916.35 1208.71 916.35C1225.52 916.35 1239.15 909.2 1239.15 900.39C1239.15 900.31 1239.12 900.24 1239.12 900.17L1239.15 900.17L1239.15 826.54C1237.11 835.59 1233.45 844.2 1220.01 848.02Z" />
		<path id="Path 23" class="shp0" d="M1080.57 1077.28L1012.93 1038.51C1012.54 1038.29 1012.13 1038.08 1011.71 1037.89L946.29 1000.4C940.29 996.97 930.57 997.12 924.69 1000.76L844.11 1050.55C838.22 1054.18 838.32 1059.96 844.32 1063.4L911.97 1102.16C912.36 1102.39 912.76 1102.6 913.18 1102.79L978.6 1140.28C984.6 1143.71 994.32 1143.55 1000.2 1139.92L1080.78 1090.14C1086.67 1086.5 1086.57 1080.72 1080.57 1077.28Z" />
		<path id="Path 24" class="shp1" d="M1000.64 1024.08C1000.64 1019.86 997.65 1014.68 993.99 1012.58L856.41 933.4C854.93 932.55 853.56 932.34 852.45 932.65C848.81 933.39 843.9 937.03 843.9 937.03L843.89 937.05C842.76 937.77 842.06 939.22 842.06 941.26L842.06 1048.88C842.06 1053.1 845.05 1058.28 848.7 1060.38L986.28 1139.55C987.49 1140.25 988.62 1140.52 989.6 1140.43C990.73 1140.4 992.24 1140.09 993.98 1139.04C997.42 1136.97 998.96 1136.24 999.74 1135C1000.31 1134.2 1000.64 1133.09 1000.64 1131.7L1000.64 1024.08Z" />
		<path id="Path 25" class="shp16" d="M842.06 941.26L842.06 1048.88C842.06 1053.1 845.05 1058.27 848.71 1060.38L986.28 1139.55C989.94 1141.66 992.93 1139.93 992.93 1135.71L992.93 1028.08C992.93 1023.87 989.94 1018.69 986.28 1016.59L848.71 937.41C847.65 936.8 846.65 936.52 845.76 936.52C843.57 936.52 842.06 938.26 842.06 941.26Z" />
		<path id="Path 26" class="shp17" d="M935.8 1071.32C943.57 1083.29 956.5 1088.69 964.66 1083.39C972.82 1078.09 973.13 1064.09 965.35 1052.11C957.57 1040.14 944.65 1034.73 936.48 1040.04C928.33 1045.34 928.02 1059.34 935.8 1071.32Z" />
		<path id="Path 27" class="shp18" d="M842.06 1032.2L842.06 1048.88C842.06 1053.1 845.05 1058.27 848.71 1060.38L986.28 1139.55C989.94 1141.66 992.93 1139.93 992.93 1135.71L992.93 1118.28L962.31 1101.03L933.54 1051.8L918.63 1063.52L888.37 1003.43C888.37 1003.43 856.21 1023.6 842.06 1032.2Z" />
		<path id="Path 28" class="shp0" d="M82.88 1026.79L117.54 1005.46C121.87 1002.8 121.91 998.63 117.81 995.98L54.35 959.46C49.8 956.85 42.42 956.96 37.96 959.71L3.29 981.04C-1.03 983.69 -1.08 987.87 3.02 990.5L66.49 1027.02C71.03 1029.64 78.41 1029.53 82.88 1026.79Z" />
		<path id="Path 29" class="shp19" d="M141.37 675.02C139.02 682.74 133.79 700.97 128.09 712.02C122.74 722.41 114.6 734.14 111.8 733.91C109.45 733.52 111.21 732.7 108.64 733.1C106.07 733.49 95.55 741.66 98.12 743.62C98.09 743.73 98.12 743.9 98.12 743.9C98.12 743.9 103.62 749.32 111.36 751.02C111.73 751.18 112.15 751.27 112.57 751.27C113.34 751.27 114.03 750.99 114.58 750.55C117.96 748.91 137.63 737.89 145.29 700.31C145.52 699.75 148.2 684.98 149.54 669.2C149.54 668.42 148.9 667.95 147.96 667.95C146.06 667.95 142.95 669.86 141.37 675.02Z" />
		<path id="Path 30" class="shp20" d="M34.83 883.7C34.98 884.3 36.62 901.75 31.55 933.98C26.48 966.21 26.33 967.48 25.73 973.75C25.46 977.86 32.89 982.18 39.16 984.19C45.43 986.2 58.52 987.44 64.34 981.4C66.58 977.25 63.22 975.13 63.22 975.13C63.22 975.13 57.48 975.73 54.92 975.66C52.97 975.56 46.49 975.13 47.22 972.11C47.95 969.08 54.49 933.61 56.06 914.92C57.63 896.23 58.63 876.65 58.63 876.65L54.6 867.36L30.43 864.33L34.83 883.7Z" />
		<path id="Path 31" class="shp21" d="M71.67 976.25C67.81 974.29 62.83 974.68 62.83 974.68C62.83 974.68 60.57 975.02 63.39 976.81C64.98 977.48 65.75 982.93 56.62 984.31C48.85 985.53 46.72 985.25 42.69 984.18C42.6 984.16 42.53 984.14 42.43 984.11C26.92 979.65 27.3 968.82 25.58 970.69C23.46 972.99 21.25 974.99 21.25 980.31C21.25 982.88 21.63 985.98 22.82 988.08C24.7 992.15 25.71 998.18 25.73 998.25L25.73 1003.58C25.73 1004.83 26.57 1005.31 27.82 1005.31C29.07 1005.31 30.26 1004.83 30.26 1003.58L30.26 996.69C30.61 993.09 31.85 990.5 31.85 990.5C31.85 990.5 33.34 987.4 35.31 990.38C37.33 993.43 40.24 998.11 47 998.14C53.75 998.18 58.35 995.79 66.24 990.08C74.13 984.38 75.53 978.21 71.67 976.25Z" />
		<path id="Path 32" class="shp22" d="M65.27 892.95C65.42 893.55 67.06 911 61.99 943.24C56.92 975.46 56.77 976.73 56.17 982.99C55.9 987.12 63.33 991.43 69.6 993.44C75.87 995.46 88.96 996.69 94.78 990.65C97.02 986.51 93.66 984.38 93.66 984.38C93.66 984.38 87.92 984.98 85.36 984.92C83.41 984.82 76.93 984.38 77.66 981.36C78.39 978.33 84.93 942.86 86.5 924.17C88.07 905.48 89.07 885.9 89.07 885.9L85.04 876.61L60.87 873.59L65.27 892.95Z" />
		<path id="Path 33" class="shp21" d="M102.11 985.5C98.25 983.54 93.27 983.93 93.27 983.93C93.27 983.93 91.01 984.27 93.83 986.05C95.42 986.73 96.19 992.18 87.06 993.56C79.29 994.78 77.16 994.5 73.13 993.44C73.05 993.41 72.97 993.39 72.87 993.35C57.36 988.9 57.74 978.08 56.02 979.94C53.9 982.25 51.7 984.25 51.7 989.56C51.7 992.13 52.07 995.23 53.26 997.32C55.14 1001.4 56.15 1007.43 56.17 1007.5L56.17 1012.83C56.17 1014.08 57.01 1014.56 58.26 1014.56C59.52 1014.56 60.7 1014.08 60.7 1012.83L60.7 1005.93C61.05 1002.34 62.29 999.75 62.29 999.75C62.29 999.75 63.78 996.65 65.75 999.63C67.77 1002.68 70.68 1007.36 77.44 1007.4C84.19 1007.43 88.79 1005.04 96.69 999.34C104.58 993.63 105.97 987.46 102.11 985.5Z" />
		<path id="Path 34" class="shp23" d="M9.61 727.43C11.03 734.65 15.59 740.75 22.54 740.75C50.46 740.75 35.13 734.78 35.13 727.43C35.13 720.07 29.49 714.11 22.54 714.11C19.17 714.11 14.87 711.32 11.89 711.32C8.74 711.32 7.08 714.46 9.61 727.43Z" />
		<path id="Path 35" class="shp24" d="M23.09 635.8C15.82 638.43 13.51 642.17 11.41 650.31C10.44 654.07 10.23 657.65 10.66 660.54C11.14 662.78 11.16 679.16 8.42 692.55C5.59 706.43 3.8 717.62 9.02 720.75C14.24 723.89 20.81 723.58 25.58 723.14C30.36 722.69 41.55 717.92 41.55 717.92C41.55 717.92 37.97 693.45 37.97 691.36C37.97 689.26 30.21 661.81 30.21 661.36C30.21 661.03 27.35 654.9 25.86 651.74C26.97 645.76 37.81 634.06 30.48 634.06C28.93 634.06 26.55 634.58 23.09 635.8Z" />
		<path id="Path 36" class="shp25" d="M17.37 644.91C13.36 655.25 16.94 669.89 18.01 687.47C19.13 705.94 27.3 730.45 27.75 732.46C28.2 734.48 29.31 736.61 27.41 738.84C19.02 748.69 17 762.68 17 762.68C17 762.68 17 762.83 16.99 763.08C16.57 765.51 16.33 768.03 16.33 770.63C16.33 772.04 16.42 773.43 16.54 774.8C16.46 779.5 18.27 783.43 22.71 797.93C27.86 822.77 24.39 878.28 24.39 878.28C24.39 886.75 40.32 893.62 59.97 893.62C79.63 893.62 95.56 886.75 95.56 878.28C95.56 878.28 96.01 798.27 96.46 786.85C96.91 775.44 96.76 754.18 91.68 745.97C86.61 737.76 86.61 737.91 86.61 732.99C86.61 728.06 86.91 712.25 88.55 698.82C90.19 685.39 94.82 681.51 93.92 671.66C93.03 661.81 93.92 653.16 76.17 645.55C68.26 643.5 48.44 634.99 41.36 634.33C39.48 633.82 37.46 633.53 35.36 633.53C26.48 633.53 19.07 638.42 17.37 644.91Z" />
		<path id="Path 37" class="shp21" d="M133.35 710.11C132.28 712.86 129.14 714.23 126.39 713.16L76.83 693.83C74.08 692.75 72.7 689.62 73.78 686.87L100.7 617.85C101.77 615.1 104.9 613.72 107.65 614.79L157.22 634.12C159.97 635.2 161.34 638.33 160.27 641.08L133.35 710.11Z" />
		<path id="Path 38" class="shp26" d="M78.78 688.82L128.33 708.15L128.34 708.16L128.35 708.16C128.35 708.16 128.34 708.16 128.34 708.15L155.26 639.13L105.7 619.8L78.78 688.82Z" />
		<path id="Path 39" class="shp27" d="M64.88 667.01C64.86 667.03 64.85 667.04 64.83 667.07C63.34 681.17 73.18 703.89 76.54 709.63C79.9 715.38 87.58 732.91 89.15 736.57C90.72 740.22 95.71 744.92 99.3 745.67C102.88 746.42 108.63 738.19 110.71 735.23C112.13 733.21 107.69 725.71 107.69 725.71C107.69 725.71 104.78 719.39 100.12 709.63C95.3 699.56 90.96 689.51 92.47 683.13C93.55 678.58 93.88 673.15 93.99 670.39C94.04 669.73 94.07 669.06 94.07 668.38C94.07 657.95 87.52 649.5 79.45 649.5C71.73 649.5 65.43 657.22 64.88 667.01Z" />
		<path id="Path 40" class="shp28" d="M46.22 620.9C46.22 620.9 47.22 623.09 46.78 628.4C46.14 633.84 45.4 636.03 45.02 636.84C44.77 637.17 44.59 637.53 44.51 637.93C43.97 640.72 48.32 643.91 54.23 645.05C60.13 646.18 65.35 644.84 65.88 642.04C65.93 641.77 65.93 641.51 65.89 641.23C65.98 640.37 66.06 639.04 66.14 636.85C66.53 630.3 69.72 625.77 69.72 625.77L68.71 624.26L63.9 619.73L53.99 619.17L46.22 620.9Z" />
		<path id="Path 41" class="shp29" d="M49.46 600.76C49.46 618.07 56.1 632.27 83.49 625.05C92.1 622.69 97.07 609.71 97.07 592.4C97.07 589.36 96.96 578.36 96.69 575.58C95.43 562.54 91.41 561.07 86.7 561.07C80.97 561.07 49.46 583.46 49.46 600.76Z" />
		<path id="Path 42" class="shp30" d="M29.91 570.39C29.91 581.72 27.76 644.77 39.28 630.08C41.52 627.23 41.77 620.97 54.5 624.48C59.25 625.79 75.89 617.47 69.83 611.65C62.52 604.64 66.94 599.55 69.46 595.62C71.27 592.79 83.77 590.74 79.31 607.02C78.86 608.96 74.85 614.97 74.91 622.99C74.94 629.14 77.37 630.3 78.41 630.3C81.4 630.3 76.94 623.5 78.86 619.26C85.67 604.23 87.34 594.04 85.94 588.33C83.9 580.01 89.04 576.86 95.83 577.04C97.4 577.07 97.51 571.95 97.51 570.39C97.51 559.06 79.92 551.07 61.25 551.07C42.59 551.07 29.91 559.06 29.91 570.39Z" />
		<path id="Path 43" class="shp31" d="M26.41 576.07C26.41 584.43 32.5 591.21 40.02 591.21C47.55 591.21 53.64 584.43 53.64 576.07C53.64 567.7 47.55 560.92 40.02 560.92C32.5 560.92 26.41 567.7 26.41 576.07Z" />
		<path id="Path 44" class="shp32" d="M26.55 577.48L26.52 577.48C26.52 577.48 13.65 607.47 16.34 637.02C19.02 666.57 18.58 668.21 33.35 694.02C39.31 706.41 39.91 707.6 39.61 712.37C39.31 717.15 43.19 719.69 43.94 709.84C44.69 699.99 45.43 687.76 38.72 667.76C34.84 655.82 35.73 644.93 37.97 635.98C40.22 627.02 43.35 619.26 46.63 601.66C48.86 583.45 48.96 580.56 48.46 577.65C48.45 577.64 48.45 577.64 48.45 577.64C47.71 571.49 43.09 566.74 37.49 566.74C31.93 566.74 28.93 571.72 26.55 577.48Z" />
		<path id="Path 45" class="shp0" d="M810.95 511.58C805.82 508.63 801.64 511.06 801.64 516.96L801.64 756.7C801.64 762.61 805.82 769.86 810.95 772.81L896.18 821.86C901.3 824.81 905.49 822.39 905.49 816.48L905.49 576.73C905.49 570.82 901.3 563.58 896.18 560.63L810.95 511.58Z" />
		<path id="Path 46" class="shp1" d="M879.77 572.04L794.53 522.99C791.95 521.5 789.61 521.39 787.92 522.39C779.6 525.75 775.97 527.92 774.66 528.79C772.9 529.73 771.8 531.84 771.8 534.87L771.8 774.61C771.8 780.52 775.98 787.76 781.1 790.71L866.34 839.77C867.67 840.53 868.94 840.93 870.09 841C870.76 841.09 874.22 841.32 880.33 837.59C883.56 835.55 885.22 834.54 886.03 834.05C886.26 833.94 886.47 833.82 886.68 833.67C886.73 833.64 886.75 833.63 886.75 833.63L886.75 833.62C888.19 832.56 889.08 830.59 889.08 827.89L889.08 588.14C889.08 582.24 884.89 574.99 879.77 572.04Z" />
		<path id="Path 47" class="shp8" d="M781.1 529.49C775.98 526.53 771.8 528.96 771.8 534.87L771.8 774.61C771.8 780.52 775.98 787.77 781.1 790.71L866.34 839.77C871.46 842.71 875.65 840.29 875.65 834.38L875.65 594.63C875.65 588.73 871.46 581.48 866.34 578.54L781.1 529.49Z" />
		<path id="Path 48" class="shp33" d="M798.36 599.86L837.3 622.27L837.3 603.01L798.36 580.6L798.36 599.86ZM861.32 687.18L861.32 667.92L794.33 629.36L794.33 648.63L861.32 687.18ZM842.67 684.2L782.98 649.84L782.98 669.11L842.67 703.46L842.67 684.2ZM794.33 702.64L861.32 741.2L861.32 721.94L794.33 683.37L794.33 702.64ZM782.98 723.12L861.32 768.21L861.32 748.94L782.98 703.86L782.98 723.12ZM782.98 730.87L782.98 750.13L821.63 772.37L821.63 753.11L782.98 730.87Z" />
		<path id="Path 49" class="shp0" d="M617.86 162.41C612.74 159.46 608.55 161.89 608.55 167.8L608.55 407.54C608.55 413.45 612.74 420.7 617.86 423.64L703.09 472.7C708.21 475.64 712.4 473.22 712.4 467.31L712.4 227.57C712.4 221.66 708.21 214.42 703.09 211.47L617.86 162.41Z" />
		<path id="Path 50" class="shp1" d="M686.68 222.88L601.45 173.83C598.87 172.34 596.52 172.22 594.83 173.23C586.51 176.59 582.88 178.75 581.58 179.63C579.81 180.57 578.71 182.67 578.71 185.7L578.71 425.44C578.71 431.35 582.9 438.6 588.02 441.55L673.25 490.6C674.58 491.37 675.85 491.76 677 491.84C677.67 491.93 681.14 492.16 687.25 488.42C690.47 486.39 692.13 485.37 692.95 484.89C693.17 484.77 693.39 484.65 693.59 484.51C693.64 484.48 693.66 484.47 693.66 484.47C693.66 484.47 693.67 484.45 693.67 484.45C695.11 483.39 695.99 481.43 695.99 478.72L695.99 238.98C695.99 233.07 691.8 225.83 686.68 222.88Z" />
		<path id="Path 51" class="shp8" d="M588.02 180.32C582.89 177.37 578.71 179.79 578.71 185.7L578.71 425.44C578.71 431.35 582.89 438.6 588.02 441.55L673.25 490.6C678.37 493.54 682.56 491.12 682.56 485.21L682.56 245.47C682.56 239.57 678.37 232.32 673.25 229.37L588.02 180.32Z" />
		<path id="Path 52" class="shp33" d="M605.27 250.7L644.21 273.11L644.21 253.85L605.27 231.44L605.27 250.7ZM668.24 338.02L668.24 318.75L601.24 280.2L601.24 299.46L668.24 338.02ZM649.59 335.03L589.9 300.68L589.9 319.94L649.59 354.29L649.59 335.03ZM601.24 353.48L668.24 392.03L668.24 372.77L601.24 334.21L601.24 353.48ZM589.9 373.96L668.24 419.04L668.24 399.78L589.9 354.69L589.9 373.96ZM589.9 381.7L589.9 400.96L628.55 423.2L628.55 403.94L589.9 381.7Z" />
		<path id="Path 53" class="shp0" d="M900.22 460.06C900.4 460.1 900.58 460.16 900.76 460.17C901.01 460.2 901.24 460.17 901.48 460.15C901.6 460.14 901.72 460.15 901.83 460.13C902.06 460.08 902.26 459.99 902.47 459.91C903.85 459.33 904.74 457.85 904.74 455.6L904.74 327.43C904.74 323.34 901.84 318.32 898.29 316.28L753.26 232.81C751.18 231.61 749.33 231.73 748.15 232.83C748.03 232.94 747.92 233.05 747.82 233.18C747.7 233.32 747.61 233.48 747.51 233.65C747.43 233.79 747.35 233.92 747.28 234.07C747.19 234.28 747.12 234.53 747.05 234.78C747.02 234.91 746.96 235.04 746.93 235.19C746.86 235.61 746.81 236.06 746.81 236.54L746.81 364.71C746.81 368.8 749.71 373.82 753.26 375.86L832.54 421.49L832.56 421.52L872.5 444.51L872.5 444.48L885.05 451.71L885.52 451.98L898.29 459.33C898.73 459.58 899.16 459.77 899.57 459.92C899.8 459.99 900.01 460.02 900.22 460.06Z" />
		<path id="Path 54" class="shp34" d="M731.89 243.07C731.38 243.13 730.47 243.65 725.53 245.75C721.63 247.4 719.87 248.65 719.11 249.32C718.15 250.07 717.56 251.42 717.56 253.25L717.56 381.42C717.56 385.51 720.47 390.53 724.02 392.57L845.97 462.8L856.27 468.69L869.05 476.04C870.78 477.03 872.35 477.14 873.51 476.52C874.27 476.31 875.55 475.9 877.69 475.12C881.81 473.66 884.17 471.83 885.35 470.67C886.41 469.95 887.07 468.57 887.07 466.62L887.07 338.46C887.07 334.37 884.17 329.35 880.62 327.31L735.59 243.84C734.57 243.25 733.6 242.97 732.74 242.97C732.44 242.97 732.16 243.01 731.89 243.07Z" />
		<path id="Path 55" class="shp35" d="M718.9 249.54C718.79 249.65 718.67 249.76 718.57 249.89C718.46 250.03 718.36 250.19 718.27 250.36C718.18 250.49 718.1 250.63 718.03 250.78C717.94 250.99 717.87 251.24 717.8 251.48C717.76 251.62 717.71 251.75 717.69 251.9C717.61 252.32 717.56 252.77 717.56 253.25L717.56 381.42C717.56 385.51 720.47 390.53 724.02 392.57L803.3 438.2L803.32 438.23L843.25 461.23L843.25 461.19L855.81 468.42L856.27 468.69L869.05 476.04C869.48 476.29 869.91 476.48 870.32 476.63C870.55 476.7 870.76 476.73 870.97 476.77C871.15 476.8 871.34 476.87 871.51 476.88C871.76 476.91 871.99 476.88 872.23 476.86C872.34 476.85 872.47 476.86 872.58 476.84C872.81 476.8 873.02 476.7 873.23 476.62C874.61 476.04 875.5 474.55 875.5 472.31L875.5 344.14C875.5 340.05 872.59 335.03 869.05 332.99L724.02 249.52C723 248.94 722.04 248.67 721.19 248.67C720.29 248.67 719.51 248.97 718.9 249.54Z" />
		<path id="Path 56" class="shp17" d="M815.56 392.81C826.45 409.57 844.55 417.14 855.98 409.71C867.41 402.29 867.85 382.68 856.95 365.91C846.05 349.15 827.96 341.57 816.52 349C805.09 356.42 804.66 376.04 815.56 392.81Z" />
		<path id="Path 57" class="shp33" d="M866.72 443.37L826.43 374.43L805.54 390.84L763.16 306.68C763.16 306.68 738.43 322.19 717.56 335.13L717.56 381.42C717.56 385.51 720.47 390.53 724.01 392.57L803.3 438.2L803.32 438.23L843.25 461.23L843.25 461.19L855.81 468.42L856.27 468.69L869.04 476.04C869.48 476.29 869.91 476.49 870.32 476.63C870.55 476.7 870.76 476.73 870.97 476.77C871.15 476.81 871.34 476.87 871.51 476.88C871.76 476.91 871.99 476.88 872.23 476.86C872.34 476.85 872.47 476.86 872.58 476.84C872.81 476.8 873.02 476.7 873.23 476.62C874.6 476.04 875.5 474.56 875.5 472.31L875.5 448.31L866.72 443.37Z" />
		<path id="Path 58" class="shp0" d="M745.2 753.18C745.32 753.2 745.43 753.24 745.54 753.25C745.7 753.27 745.85 753.25 746 753.23C746.07 753.23 746.15 753.23 746.23 753.22C746.37 753.19 746.5 753.14 746.63 753.08C747.5 752.72 748.07 751.78 748.07 750.36L748.07 669.19C748.07 666.6 746.23 663.42 743.98 662.13L652.13 609.26C650.81 608.51 649.65 608.58 648.9 609.28C648.83 609.35 648.75 609.42 648.69 609.5C648.62 609.59 648.56 609.69 648.49 609.8C648.44 609.88 648.39 609.96 648.35 610.06C648.29 610.2 648.25 610.36 648.21 610.51C648.18 610.6 648.15 610.68 648.13 610.78C648.08 611.04 648.05 611.32 648.05 611.63L648.05 692.79C648.05 695.39 649.89 698.56 652.13 699.86L702.34 728.76L702.36 728.77L727.65 743.34L727.65 743.32L735.6 747.89L735.89 748.06L743.98 752.72C744.26 752.88 744.53 753 744.79 753.09C744.93 753.14 745.07 753.15 745.2 753.18Z" />
		<path id="Path 59" class="shp36" d="M638.6 615.76C638.27 615.8 637.71 616.12 634.57 617.46C632.1 618.51 630.99 619.3 630.51 619.72C629.9 620.2 629.52 621.05 629.52 622.21L629.52 703.38C629.52 705.97 631.36 709.15 633.61 710.44L710.85 754.91L717.37 758.65L725.46 763.3C726.56 763.93 727.55 764 728.29 763.6C728.77 763.47 729.58 763.21 730.93 762.72C733.54 761.79 735.04 760.63 735.79 759.9C736.46 759.44 736.87 758.57 736.87 757.34L736.87 676.17C736.87 673.58 735.04 670.4 732.79 669.11L640.94 616.25C640.29 615.88 639.68 615.7 639.13 615.7C638.95 615.7 638.77 615.72 638.6 615.76Z" />
		<path id="Path 60" class="shp37" d="M630.38 619.86C630.3 619.93 630.23 620 630.16 620.08C630.09 620.17 630.03 620.27 629.97 620.38C629.92 620.46 629.87 620.55 629.83 620.65C629.76 620.78 629.73 620.94 629.68 621.09C629.66 621.18 629.63 621.26 629.61 621.36C629.56 621.62 629.52 621.9 629.52 622.21L629.52 703.38C629.52 705.97 631.36 709.15 633.61 710.44L683.82 739.34L683.83 739.36L709.12 753.92L709.12 753.89L717.08 758.47L717.37 758.65L725.46 763.3C725.73 763.46 726.01 763.58 726.27 763.67C726.41 763.72 726.55 763.73 726.68 763.76C726.79 763.79 726.91 763.82 727.02 763.83C727.18 763.85 727.33 763.83 727.48 763.81C727.55 763.81 727.63 763.81 727.7 763.81C727.85 763.78 727.98 763.72 728.11 763.66C728.98 763.3 729.54 762.36 729.54 760.94L729.54 679.77C729.54 677.18 727.71 674 725.46 672.71L633.61 619.85C632.97 619.48 632.36 619.31 631.83 619.31C631.26 619.31 630.76 619.5 630.38 619.86Z" />
		<path id="Path 61" class="shp0" d="M699.54 605.46C699.66 605.48 699.77 605.52 699.88 605.52C700.04 605.54 700.19 605.52 700.34 605.51C700.41 605.5 700.5 605.51 700.57 605.5C700.71 605.47 700.84 605.41 700.97 605.36C701.84 604.99 702.41 604.05 702.41 602.63L702.41 521.47C702.41 518.87 700.57 515.69 698.32 514.4L606.48 461.54C605.15 460.78 603.99 460.85 603.24 461.55C603.17 461.62 603.09 461.69 603.03 461.77C602.96 461.86 602.9 461.96 602.84 462.07C602.78 462.16 602.73 462.24 602.68 462.34C602.63 462.48 602.59 462.63 602.55 462.78C602.52 462.87 602.49 462.95 602.47 463.05C602.42 463.31 602.39 463.59 602.39 463.9L602.39 545.07C602.39 547.66 604.23 550.84 606.48 552.14L656.69 581.03L656.7 581.05L681.98 595.61L681.98 595.59L689.94 600.17L690.24 600.33L698.32 604.99C698.6 605.15 698.87 605.27 699.13 605.36C699.28 605.41 699.41 605.43 699.54 605.46Z" />
		<path id="Path 62" class="shp38" d="M592.94 468.04C592.62 468.08 592.05 468.4 588.91 469.73C586.44 470.78 585.33 471.57 584.85 472C584.24 472.47 583.87 473.33 583.87 474.49L583.87 555.66C583.87 558.25 585.7 561.42 587.95 562.72L665.19 607.19L671.71 610.92L679.8 615.58C680.89 616.21 681.89 616.27 682.63 615.88C683.11 615.74 683.92 615.49 685.27 615C687.89 614.07 689.38 612.91 690.13 612.17C690.8 611.72 691.22 610.84 691.22 609.61L691.22 528.45C691.22 525.86 689.38 522.68 687.13 521.39L595.28 468.53C594.64 468.15 594.02 467.98 593.48 467.98C593.29 467.98 593.11 468 592.94 468.04Z" />
		<path id="Path 63" class="shp39" d="M584.72 472.14C584.64 472.21 584.57 472.27 584.5 472.35C584.43 472.45 584.37 472.55 584.31 472.65C584.26 472.75 584.2 472.82 584.16 472.92C584.11 473.06 584.06 473.21 584.02 473.37C584 473.46 583.96 473.54 583.95 473.63C583.9 473.9 583.87 474.18 583.87 474.49L583.87 555.66C583.87 558.25 585.7 561.42 587.95 562.72L638.16 591.61L638.17 591.64L663.46 606.19L663.46 606.17L671.42 610.75L671.71 610.92L679.8 615.58C680.08 615.73 680.35 615.86 680.61 615.95C680.75 615.99 680.88 616.01 681.02 616.04C681.13 616.07 681.25 616.1 681.36 616.11C681.52 616.12 681.67 616.11 681.82 616.1C681.89 616.09 681.97 616.1 682.04 616.08C682.19 616.06 682.32 616 682.45 615.94C683.32 615.58 683.88 614.64 683.88 613.21L683.88 532.04C683.88 529.46 682.05 526.28 679.8 524.99L587.95 472.12C587.31 471.76 586.71 471.58 586.17 471.58C585.6 471.58 585.1 471.78 584.72 472.14Z" />
		<path id="Path 64" class="shp40" d="M498.51 52.07C498 52.13 497.1 52.65 492.15 54.75C488.25 56.41 486.5 57.65 485.74 58.33C484.77 59.08 484.19 60.42 484.19 62.26L484.19 190.42C484.19 194.51 487.09 199.53 490.64 201.58L587.84 257.52L609.93 319.58L622.9 312.97L622.9 277.69L635.67 285.04C637.4 286.04 638.97 286.14 640.14 285.52C640.89 285.31 642.18 284.91 644.31 284.13C648.44 282.66 650.8 280.83 651.97 279.67C653.04 278.96 653.7 277.57 653.7 275.63L653.7 147.46C653.7 143.37 650.8 138.35 647.25 136.31L502.21 52.84C501.19 52.25 500.22 51.98 499.36 51.98C499.06 51.98 498.78 52.01 498.51 52.07Z" />
		<path id="Path 65" class="shp41" d="M484.19 62.26L484.19 190.42C484.19 194.51 487.09 199.53 490.64 201.58L569.92 247.2L609.87 319.79L609.87 270.2L635.67 285.04C639.22 287.08 642.12 285.41 642.12 281.31L642.12 153.14C642.12 149.06 639.22 144.03 635.67 141.99L490.64 58.53C489.61 57.94 488.64 57.66 487.77 57.66C485.65 57.66 484.19 59.34 484.19 62.26Z" />
		<path id="Path 66" class="shp42" d="M540.5 179.4L525.26 160.25C524.74 159.62 524.38 159.07 524.16 158.59C523.95 158.11 523.84 157.62 523.84 157.13L523.84 156.23C523.84 155.74 523.95 155.37 524.16 155.11C524.38 154.85 524.74 154.66 525.26 154.55L540.5 151.28C540.56 151.28 540.72 151.27 540.98 151.25C541.24 151.23 541.47 151.28 541.67 151.38C541.96 151.53 542.2 151.76 542.4 152.05C542.59 152.35 542.69 152.65 542.69 152.97L542.69 155.11C542.69 155.49 542.6 155.75 542.42 155.9C542.24 156.05 541.96 156.16 541.57 156.23L528.38 159.03L541.57 175.56C541.99 176.1 542.29 176.53 542.45 176.85C542.61 177.18 542.69 177.52 542.69 177.87L542.69 180.01C542.69 180.35 542.59 180.58 542.4 180.66C542.2 180.76 541.96 180.73 541.67 180.58C541.44 180.46 541.05 180.07 540.5 179.4ZM547.57 191.41C547.38 191.1 547.28 190.81 547.28 190.53C547.28 190.39 547.33 190.21 547.42 189.98L564.12 156.19C564.42 155.76 564.84 155.7 565.39 155.99L567.2 156.96C567.46 157.1 567.69 157.32 567.89 157.63C568.08 157.95 568.18 158.24 568.18 158.51C568.18 158.65 568.13 158.83 568.03 159.05L551.28 192.72C551.22 192.9 551.08 193.03 550.87 193.11C550.66 193.19 550.37 193.14 550.02 192.96L548.25 192.07C547.99 191.94 547.77 191.72 547.57 191.41ZM573.01 196.33C572.82 196.02 572.72 195.72 572.72 195.41L572.72 193.31C572.72 192.97 572.8 192.72 572.96 192.56C573.13 192.41 573.42 192.29 573.84 192.2L587.03 189.61L573.84 173.26C573.45 172.79 573.17 172.38 572.99 172.04C572.81 171.71 572.72 171.36 572.72 170.98L572.72 168.88C572.72 168.57 572.81 168.37 572.99 168.28C573.17 168.19 573.41 168.22 573.7 168.37C573.89 168.48 574.13 168.68 574.4 168.98C574.68 169.28 574.85 169.46 574.92 169.53L590.15 188.5C590.67 189.14 591.04 189.7 591.25 190.16C591.46 190.63 591.57 191.1 591.57 191.57L591.57 192.43C591.57 192.9 591.46 193.26 591.25 193.5C591.04 193.75 590.67 193.9 590.15 193.97L574.92 197.05C574.4 197.16 573.99 197.13 573.7 196.99C573.44 196.85 573.21 196.63 573.01 196.33Z" />
		<path id="Path 67" class="shp0" d="M473.69 857.1C468.69 854.23 460.57 854.34 455.66 857.37L417.55 880.81C412.63 883.84 412.7 888.67 417.7 891.55L542.29 963.24C547.29 966.12 555.4 966 560.31 962.98L598.42 939.53C603.34 936.51 603.27 931.68 598.27 928.8L473.69 857.1Z" />
		<path id="Path 68" class="shp43" d="M519.08 566.24C519.08 566.24 502.86 566.95 497.28 566.42C491.69 565.9 490.3 572.87 490.3 572.87L442.68 574.97L442.85 582.99C442.85 582.99 442.15 587.53 445.64 589.27C449.13 591.02 489.25 578.28 492.57 578.11C497.1 579.51 499.55 577.58 514.2 571.14C524.07 566.79 522.86 566.08 521.02 566.08C520.12 566.08 519.08 566.24 519.08 566.24Z" />
		<path id="Path 69" class="shp44" d="M472.94 500.21C472.94 500.21 459.02 504.41 451.07 528.72C443.12 553.01 439.14 564.51 438.92 569.81C438.7 575.1 436.71 585.49 442.45 588.36C448.2 591.24 452.62 587.92 455.49 584.61C458.36 581.29 457.04 577.76 459.68 570.91C462.34 564.06 463.88 553.9 468.97 550.36C474.05 546.83 480.89 537.55 480.89 537.55L480.67 500.21L472.94 500.21Z" />
		<path id="Path 70" class="shp45" d="M489.09 878.18C483.57 878.53 471.43 880.58 466.68 881.44C465.66 881.66 465.48 880.92 465.48 880.92L463.45 880.6L460.92 880.24L456.62 879.73L454.53 881.27C454.53 881.27 453.96 886.25 454.15 889.16C454.33 892.07 453 895.16 454.53 895.67C456.05 896.19 460.03 897.39 462.88 896.19C465.73 894.99 465.35 891.9 467.06 892.07C468.76 892.24 478.83 889.67 485.67 886.25C492.27 882.93 494.45 878.17 489.61 878.17C489.44 878.17 489.27 878.17 489.09 878.18Z" />
		<path id="Path 71" class="shp46" d="M465.54 881.27C465.54 882.79 463.08 884.02 460.03 884.02C456.99 884.02 454.53 882.79 454.53 881.27C454.53 879.76 456.99 878.53 460.03 878.53C463.08 878.53 465.54 879.76 465.54 881.27Z" />
		<path id="Path 72" class="shp47" d="M474.71 650.68C462.7 652.98 466.05 659.58 466.05 665.75C466.05 671.92 462.48 704.68 458.09 747.41C454.05 786.73 456.07 803.9 455.6 834.04C455.22 858.02 453.5 870.4 452.81 874.48C452.64 874.98 452.52 875.51 452.52 876.06C452.52 879.46 456.03 882.23 460.35 882.23C464.68 882.23 468.18 879.46 468.18 876.06C468.18 876.06 472.77 815.93 473.58 809.53C477.61 777.67 488.36 739.57 492.39 725.33C496.43 711.09 513.75 661.6 513.75 661.6C513.75 661.6 504.48 649.68 484.87 649.68C481.75 649.68 478.36 649.98 474.71 650.68Z" />
		<path id="Path 73" class="shp48" d="M504.95 477.48C504.34 477.69 504.81 482.74 503.79 491.85C502.77 500.95 496.39 514.8 495.46 516.54C495.46 516.54 501.57 520.87 502.7 521.79C503.82 522.72 512.01 526.71 518.36 528.96C521.96 530.24 523.71 528.56 524.44 526.88C524.99 525.61 524.96 524.34 524.7 524.36C518.25 524.86 516.21 503.99 525.83 495.39C529.88 491.6 526.85 483.83 526.85 483.83L521.94 481.68L511.19 475.95C511.19 475.95 505.56 477.28 504.95 477.48Z" />
		<path id="Path 74" class="shp49" d="M511.5 456.71C511.5 456.71 503.92 460.94 503.92 461.15C503.92 461.35 494.51 482.36 494.51 483.05C494.51 483.73 506.99 499.29 526.78 499.35C529.27 499.35 531.28 497.33 531.28 494.85C531.28 494.3 531.17 493.78 530.99 493.3C530.81 492.21 530.6 490.73 530.6 489.53C530.6 487.34 531.83 486.39 531.28 485.3C530.74 484.21 529.92 483.52 530.33 482.43C530.45 482.09 530.64 481.56 530.83 481C532 480.53 532.99 479.63 532.99 478.47C532.99 476.97 528.15 468.36 525.88 466.45C525.68 464.81 525.44 462.8 525.21 461.08C524.74 457.46 523.84 455.21 520.91 455.21C517.98 455.21 511.5 456.71 511.5 456.71Z" />
		<path id="Path 75" class="shp50" d="M566.36 910.41C559.48 910.89 544.29 913.73 538.35 914.92C537.08 915.22 536.85 914.2 536.85 914.2L534.32 913.75L531.16 913.26L525.77 912.55L523.16 914.69C523.16 914.69 522.45 921.57 522.69 925.6C522.92 929.64 521.26 933.91 523.16 934.63C525.06 935.34 530.04 937 533.6 935.34C537.16 933.68 536.69 929.4 538.82 929.64C540.96 929.88 553.54 926.32 562.09 921.57C570.35 916.98 573.07 910.39 567.01 910.39C566.8 910.39 566.59 910.4 566.36 910.41Z" />
		<path id="Path 76" class="shp46" d="M536.93 914.69C536.93 916.78 533.84 918.48 530.04 918.48C526.24 918.48 523.16 916.78 523.16 914.69C523.16 912.59 526.24 910.89 530.04 910.89C533.84 910.89 536.93 912.59 536.93 914.69Z" />
		<path id="Path 77" class="shp51" d="M477.44 667.65C477.44 672.53 478.52 677.08 480.36 680.93C485.42 694.45 506.06 710.79 508.3 731.74C510.67 754.05 517.55 763.55 518.5 776.6C519.45 789.65 520.4 849.71 521.58 868.93C522.77 888.16 523.43 911 523.43 911C523.43 914.05 526.3 916.51 529.83 916.51C533.37 916.51 536.24 914.05 536.24 911C536.24 911 543.18 813.39 543.66 791.55C544.13 769.72 543.9 768.29 544.14 741C544.41 709.27 543.2 658.17 543.2 658.17L515.51 662.67C513.74 651.16 505.98 642.49 496.67 642.49C486.05 642.49 477.44 653.76 477.44 667.65Z" />
		<path id="Path 78" class="shp52" d="M468.97 503.75C463.4 513.22 466.32 523.85 469.19 547.71C472.06 571.57 472.28 599.18 469.19 619.51C467.39 631.32 464.41 645.36 465.9 653.75C465.91 653.86 465.89 653.93 465.9 654.03C465.97 654.82 466.23 655.59 466.58 656.35C467.3 658.31 468.41 659.77 470.05 660.55C476.49 665.76 489.78 669.39 505.69 669.39C520.74 669.39 533.22 666.51 539.92 661.99C542.92 660.95 546.2 657.45 546.07 647.35C545.85 629.9 538.55 610.46 543.42 590.57C548.28 570.69 551.15 562.96 551.15 562.96L548.28 526.28C548.28 526.28 536.84 519.54 524.42 517.23C514.92 515.45 510 514.58 501 509.94C498.76 508.78 494.42 502.65 483.65 499.66C483.65 499.66 481.39 498.98 478.55 498.98C475.28 498.98 471.24 499.88 468.97 503.75Z" />
		<path id="Path 79" class="shp53" d="M523.06 456.92C524.43 449.68 522.87 434.9 522.87 434.9C522.87 433.74 521.87 432.81 520.62 432.81C502.48 432.16 484.2 455.09 480.64 459.79C478.71 462.04 477.51 464.83 477.51 467.91C477.51 468.85 477.63 469.76 477.83 470.65C477.81 470.74 477.78 470.81 477.76 470.9C479.01 479.76 492.98 494.23 492.98 494.23L493.1 494.23C494.61 495.72 496.73 496.67 499.1 496.67C503.17 496.67 506.54 493.91 507.2 490.28C507.21 490.24 507.23 490.21 507.24 490.17C507.74 488.04 508.84 483.14 508.34 474.21C508.17 471.29 517.31 468.5 517.54 468.45L517.66 468.38C519.38 467.78 520.7 466.47 521.26 464.83C521.27 464.82 521.27 464.81 521.28 464.8C521.29 464.76 521.29 464.75 521.3 464.71C521.39 464.4 521.45 464.1 521.49 463.79C521.87 461.93 521.87 461.55 523.06 456.92Z" />
		<path id="Path 80" class="shp54" d="M674.21 580.19C674.21 580.19 653.66 581.07 646.59 580.41C639.52 579.75 637.75 588.58 637.75 588.58L577.44 591.24L577.66 601.4C577.66 601.4 576.78 607.14 581.2 609.35C585.62 611.56 636.43 595.43 640.63 595.22C646.37 596.98 649.47 594.55 668.02 586.38C680.5 580.88 678.99 579.98 676.67 579.98C675.53 579.98 674.21 580.19 674.21 580.19Z" />
		<path id="Path 81" class="shp55" d="M524.75 539.54C524.75 540.59 524.87 541.62 525.08 542.61C524.82 553.75 558.06 586 563.02 591.96C567.99 597.92 569.53 603.9 575.95 609.07C582.96 614.54 584.9 611.44 583.52 604.99C582.23 599.01 586.39 595.7 584.9 588.08C584.29 584.98 579.1 580.69 568.16 555.34C561.71 540.38 556.57 533.3 553.43 529.98C550.47 526.52 545.95 524.3 540.88 524.3C531.97 524.3 524.75 531.12 524.75 539.54Z" />
		<path id="Path 82" class="shp0" d="M851 1199.95C856.65 1196.7 865.79 1196.84 871.33 1200.25L914.32 1226.69C919.86 1230.1 919.78 1235.55 914.14 1238.79L773.64 1319.65C768 1322.9 758.86 1322.76 753.31 1319.35L710.33 1292.91C704.79 1289.5 704.87 1284.05 710.51 1280.81L851 1199.95Z" />
		<path id="Path 83" class="shp56" d="M782.37 855.61C794.45 869.04 796.07 872.14 801.39 872.8C804.71 874.52 840.07 906.19 844.47 906.01C848.87 905.83 850.25 900.85 850.25 900.85L854.14 892.67L806.14 868.47C806.14 868.47 807.94 860.65 801.95 858.6C795.97 856.56 779.61 848.32 779.61 848.32C779.61 848.32 777.48 846.92 776.58 846.92C775.59 846.92 776.06 848.6 782.37 855.61Z" />
		<path id="Path 84" class="shp57" d="M832.17 836.51C832.17 836.51 834.91 849.22 838.5 855.2C842.1 861.19 838.98 872.35 838.53 880.63C838.08 888.9 835.08 891.92 836.5 896.65C837.92 901.39 840.93 906.85 848.17 906.56C855.41 906.26 858.17 894.66 860.39 889.11C862.62 883.55 863.86 869.9 866.93 841.23C870.01 812.55 857.64 801.79 857.64 801.79L849.69 798.21L832.17 836.51Z" />
		<path id="Path 85" class="shp58" d="M837.49 1232.82C845.2 1236.68 856.55 1239.58 858.48 1239.39C860.41 1239.19 859.98 1242.68 863.19 1244.03C866.41 1245.38 870.9 1244.03 872.61 1243.45C874.33 1242.87 872.83 1239.39 873.04 1236.1C873.25 1232.82 872.61 1227.2 872.61 1227.2L870.26 1225.46L865.4 1226.04L862.55 1226.45L860.26 1226.81C860.26 1226.81 860.06 1227.64 858.91 1227.4C853.55 1226.43 839.85 1224.11 833.64 1223.72C833.43 1223.71 833.24 1223.7 833.05 1223.7C827.59 1223.7 830.04 1229.07 837.49 1232.82Z" />
		<path id="Path 86" class="shp46" d="M860.19 1227.21C860.19 1228.91 862.97 1230.3 866.41 1230.3C869.83 1230.3 872.61 1228.91 872.61 1227.21C872.61 1225.5 869.83 1224.11 866.41 1224.11C862.97 1224.11 860.19 1225.5 860.19 1227.21Z" />
		<path id="Path 87" class="shp59" d="M805.82 979.47C805.82 979.47 825.36 1035.28 829.9 1051.34C834.46 1067.4 846.57 1110.36 851.13 1146.3C852.04 1153.51 857.21 1221.32 857.21 1221.32C857.21 1225.17 861.17 1228.28 866.05 1228.28C870.92 1228.28 874.88 1225.17 874.88 1221.32C874.88 1220.7 874.74 1220.11 874.55 1219.54C873.77 1214.94 871.83 1200.98 871.4 1173.94C870.87 1139.94 873.15 1120.59 868.59 1076.23C863.64 1028.05 859.62 991.11 859.62 984.15C859.62 977.19 863.39 969.75 849.85 967.15C845.73 966.36 841.92 966.02 838.4 966.02C816.28 966.02 805.82 979.47 805.82 979.47Z" />
		<path id="Path 88" class="shp60" d="M796.59 776.56L791.05 778.98C791.05 778.98 787.64 787.74 792.2 792.02C803.05 801.72 800.74 825.26 793.47 824.69C793.18 824.66 793.14 826.1 793.77 827.53C794.59 829.43 796.56 831.32 800.63 829.87C807.79 827.34 817.02 822.84 818.29 821.8C819.56 820.76 826.44 815.87 826.44 815.87C825.4 813.91 818.21 798.29 817.06 788.02C815.9 777.75 816.43 772.06 815.75 771.82C815.06 771.59 808.71 770.09 808.71 770.09L796.59 776.56Z" />
		<path id="Path 89" class="shp61" d="M792.89 753.32C792.64 755.27 792.37 757.53 792.15 759.38C789.58 761.54 784.13 771.24 784.13 772.94C784.13 774.24 785.24 775.26 786.56 775.79C786.77 776.42 786.99 777.02 787.13 777.4C787.59 778.63 786.66 779.41 786.05 780.64C785.43 781.86 786.82 782.94 786.82 785.41C786.82 786.76 786.59 788.42 786.38 789.66C786.18 790.21 786.05 790.79 786.05 791.41C786.05 794.21 788.32 796.49 791.13 796.49C813.44 796.41 827.52 778.86 827.52 778.1C827.52 777.33 816.9 753.63 816.9 753.4C816.9 753.17 808.36 748.39 808.36 748.39C808.36 748.39 801.05 746.71 797.74 746.71C794.44 746.71 793.43 749.24 792.89 753.32Z" />
		<path id="Path 90" class="shp62" d="M751.31 1272.65C760.94 1278.01 775.13 1282.02 777.54 1281.75C779.95 1281.49 779.42 1286.3 783.43 1288.18C787.45 1290.05 793.07 1288.18 795.21 1287.38C797.35 1286.57 795.48 1281.75 795.74 1277.21C796.01 1272.65 795.21 1264.89 795.21 1264.89L792.27 1262.48L786.2 1263.29L782.63 1263.84L779.77 1264.33C779.77 1264.33 779.52 1265.49 778.08 1265.15C771.39 1263.82 754.25 1260.6 746.49 1260.07C746.23 1260.05 745.99 1260.05 745.75 1260.05C738.93 1260.05 741.99 1267.48 751.31 1272.65Z" />
		<path id="Path 91" class="shp46" d="M779.68 1264.89C779.68 1267.25 783.16 1269.17 787.45 1269.17C791.73 1269.17 795.21 1267.25 795.21 1264.89C795.21 1262.53 791.73 1260.6 787.45 1260.6C783.16 1260.6 779.68 1262.53 779.68 1264.89Z" />
		<path id="Path 92" class="shp63" d="M803.84 980.67L772.61 975.61C772.61 975.61 771.24 1033.24 771.55 1069.01C771.82 1099.79 771.56 1101.4 772.09 1126.03C772.62 1150.65 780.46 1260.74 780.46 1260.74C780.46 1264.17 783.69 1266.95 787.68 1266.95C791.67 1266.95 794.9 1264.17 794.9 1260.74C794.9 1260.74 795.65 1234.98 796.99 1213.29C798.32 1191.61 799.4 1123.88 800.47 1109.16C801.53 1094.43 809.29 1083.73 811.97 1058.56C814.49 1034.95 837.77 1016.51 843.48 1001.27C845.55 996.92 846.77 991.8 846.77 986.29C846.77 970.62 837.06 957.92 825.09 957.92C814.59 957.92 805.83 967.69 803.84 980.67Z" />
		<path id="Path 93" class="shp64" d="M839.76 796.84C827.62 800.2 822.73 807.12 820.2 808.42C810.05 813.65 804.5 814.64 793.79 816.65C779.78 819.26 766.88 826.86 766.88 826.86L763.65 868.22C763.65 868.22 766.88 876.94 772.37 899.37C777.84 921.79 769.62 943.71 769.37 963.4C769.22 974.79 772.93 978.74 776.3 979.91C783.87 985 797.94 988.25 814.91 988.25C832.86 988.25 847.84 984.15 855.1 978.28C856.95 977.41 858.21 975.76 859.02 973.55C859.41 972.69 859.71 971.83 859.79 970.93C859.8 970.82 859.78 970.73 859.79 970.62C861.47 961.15 858.11 945.32 856.08 932C852.59 909.08 852.84 877.94 856.08 851.03C859.32 824.12 862.61 812.14 856.33 801.45C853.77 797.08 849.21 796.07 845.52 796.07C842.31 796.07 839.76 796.84 839.76 796.84Z" />
		<path id="Path 94" class="shp65" d="M795.33 748.64C793.78 740.47 795.53 723.8 795.53 723.8C795.53 722.49 796.66 721.43 798.07 721.43C818.53 720.72 839.15 746.57 843.16 751.86C845.34 754.4 846.69 757.56 846.69 761.02C846.69 762.08 846.56 763.12 846.33 764.12C846.35 764.22 846.38 764.3 846.4 764.4C845 774.39 829.24 790.72 829.24 790.72L829.11 790.71C827.41 792.4 825.02 793.46 822.34 793.46C817.76 793.46 813.96 790.34 813.21 786.26C813.2 786.22 813.17 786.18 813.16 786.13C812.6 783.73 811.37 778.19 811.92 768.13C812.12 764.84 801.81 761.68 801.55 761.64L801.42 761.56C799.48 760.88 797.98 759.41 797.36 757.56C797.34 757.54 797.34 757.53 797.33 757.52C797.32 757.48 797.31 757.45 797.3 757.41C797.21 757.08 797.13 756.73 797.09 756.38C796.66 754.28 796.66 753.86 795.33 748.64Z" />
		<path id="Path 95" class="shp66" d="M745.27 1002.36C745.27 1002.36 735.11 1002.93 734.74 1010.93C734.35 1018.93 730.11 1041.73 730.11 1041.73C730.11 1041.73 725.92 1055.24 738 1035.81C750.06 1016.38 753.27 1013.31 752.21 1006.62C753.12 1001.97 777.83 949.56 776.82 944.08C775.98 939.55 784.98 921.36 780.44 914.13C779.82 913.15 771.35 920.82 771.35 920.82L761.84 911.1L745.27 1002.36Z" />
		<path id="Path 96" class="shp67" d="M763.73 828.93C758.91 832.01 755.95 836.86 755.23 841.94C754.25 847 753.66 856.85 756.57 874.99C761.52 905.73 758.04 913.68 760.48 916.27C764.2 920.26 771.45 922.4 776.91 922.58C784.1 922.84 782.52 915.41 783.64 906.72C784.75 898.04 796.84 847.24 789.86 836.81C789.46 835.72 788.95 834.67 788.31 833.67C785.12 828.66 779.61 825.95 773.86 825.95C770.43 825.95 766.9 826.92 763.73 828.93Z" />
		<path id="Path 97" class="shp0" d="M532.32 1094.18C528.46 1091.74 522.05 1091.57 518.07 1093.8L409.06 1154.86C405.08 1157.08 404.98 1160.9 408.83 1163.34L544.92 1249.27C548.78 1251.71 555.2 1251.88 559.17 1249.65L668.19 1188.6C672.17 1186.37 672.27 1182.55 668.41 1180.12L532.32 1094.18Z" />
		<path id="Path 98" class="shp68" d="M524.53 1083.9L426.8 1138.64C424.9 1139.7 423.99 1141.17 424.08 1142.64L423.61 1154.14C423.58 1154.37 423.57 1154.6 423.59 1154.82L423.58 1154.93L423.59 1154.93C423.71 1156.18 424.53 1157.43 426.1 1158.41L548.11 1235.45C551.57 1237.64 557.32 1237.79 560.89 1235.79L658.62 1181.06C660.52 1179.99 661.42 1178.53 661.34 1177.06L661.34 1177.06L661.76 1165.8C662.13 1164.22 661.32 1162.55 659.32 1161.28L537.31 1084.23C535.48 1083.08 533.01 1082.49 530.56 1082.49C528.38 1082.49 526.21 1082.96 524.53 1083.9Z" />
		<path id="Path 99" class="shp69" d="M524.53 1083.9L426.8 1138.64C423.23 1140.63 423.14 1144.05 426.6 1146.24L548.61 1223.28C552.07 1225.46 557.82 1225.62 561.39 1223.62L659.12 1168.88C662.69 1166.88 662.78 1163.46 659.32 1161.28L537.31 1084.23C535.48 1083.08 533.01 1082.49 530.56 1082.49C528.38 1082.49 526.21 1082.96 524.53 1083.9Z" />
		<path id="Path 100" class="shp70" d="M542.99 1073.54L448.68 1133.97C446.84 1135.15 446.02 1136.67 446.2 1138.14L446.41 1149.65C446.39 1149.87 446.39 1150.1 446.42 1150.32L446.42 1150.44L446.43 1150.44C446.62 1151.67 447.53 1152.87 449.15 1153.76L575.51 1223.44C579.09 1225.41 584.84 1225.22 588.28 1223.01L682.6 1162.58C684.43 1161.41 685.24 1159.89 685.08 1158.44L685.08 1158.44L684.83 1147.17C685.1 1145.57 684.2 1143.94 682.12 1142.8L555.76 1073.12C554.1 1072.2 551.98 1071.75 549.83 1071.75C547.35 1071.75 544.84 1072.36 542.99 1073.54Z" />
		<path id="Path 101" class="shp71" d="M542.99 1073.54L448.68 1133.97C445.23 1136.18 445.34 1139.6 448.92 1141.58L575.29 1211.25C578.87 1213.23 584.62 1213.03 588.06 1210.83L682.38 1150.4C685.82 1148.19 685.7 1144.77 682.12 1142.8L555.76 1073.12C554.1 1072.2 551.98 1071.75 549.83 1071.75C547.35 1071.75 544.84 1072.36 542.99 1073.54Z" />
		<path id="Path 102" class="shp72" d="M533.21 1046.7L437.8 1105.4C435.95 1106.55 435.1 1108.05 435.25 1109.52L435.25 1121.02C435.23 1121.25 435.23 1121.47 435.25 1121.7L435.25 1121.81L435.26 1121.81C435.43 1123.06 436.31 1124.27 437.91 1125.19L562.98 1197.17C566.53 1199.21 572.27 1199.12 575.76 1196.98L671.16 1138.28C673.02 1137.14 673.86 1135.65 673.72 1134.18L673.73 1134.18L673.68 1122.92C673.98 1121.32 673.11 1119.67 671.05 1118.49L545.98 1046.52C544.27 1045.53 542.04 1045.04 539.8 1045.04C537.41 1045.04 535.01 1045.59 533.21 1046.7Z" />
		<path id="Path 103" class="shp73" d="M533.21 1046.7L437.8 1105.4C434.32 1107.54 434.37 1110.96 437.91 1113L562.98 1184.98C566.53 1187.02 572.27 1186.94 575.76 1184.79L671.16 1126.1C674.65 1123.95 674.6 1120.53 671.05 1118.49L545.98 1046.52C544.27 1045.53 542.04 1045.04 539.8 1045.04C537.41 1045.04 535.01 1045.59 533.21 1046.7Z" />
		<path id="Path 104" class="shp33" d="M563.17 1156.29L556.35 1100.52L521.65 1106.09L530.33 1081.31L468.73 1086.37L437.8 1105.4C434.32 1107.54 434.37 1110.97 437.91 1113L562.98 1184.98C566.53 1187.02 572.27 1186.94 575.76 1184.79L594.62 1173.18L592.91 1150.71L563.17 1156.29Z" />
		<path id="Path 105" class="shp17" d="M620.57 1122.2C620.57 1134.34 607.63 1144.18 591.67 1144.18C575.71 1144.18 562.78 1134.34 562.78 1122.2C562.78 1110.06 575.71 1100.23 591.67 1100.23C607.63 1100.23 620.57 1110.06 620.57 1122.2Z" />
		<path id="Path 106" class="shp0" d="M269.91 884.6C273.2 882.53 278.66 882.39 282.05 884.29L374.87 936.27C378.25 938.17 378.34 941.42 375.06 943.49L259.18 1016.66C255.9 1018.74 250.43 1018.87 247.04 1016.98L154.22 964.99C150.84 963.1 150.75 959.85 154.04 957.78L269.91 884.6Z" />
		<path id="Path 107" class="shp7" d="M160.05 955.18L159.7 945.6C159.38 944.25 160.07 942.81 161.77 941.73L265.66 876.14C268.61 874.28 273.5 874.14 276.54 875.85L359.76 922.46C361.38 923.36 362.15 924.62 362.07 925.87L362.48 935.66C362.51 935.85 362.51 936.05 362.5 936.24L362.51 936.33L362.5 936.33C362.39 937.4 361.69 938.45 360.35 939.3L256.46 1004.9C253.52 1006.76 248.63 1006.89 245.59 1005.18L162.37 958.58C160.76 957.67 159.99 956.43 160.06 955.18L160.05 955.18Z" />
		<path id="Path 108" class="shp74" d="M265.66 876.13L161.77 941.73C158.83 943.6 158.91 946.51 161.95 948.21L245.16 994.81C248.2 996.52 253.1 996.39 256.04 994.53L359.93 928.93C362.88 927.07 362.8 924.16 359.76 922.46L276.54 875.85C275.11 875.05 273.27 874.65 271.41 874.65C269.33 874.65 267.22 875.15 265.66 876.13Z" />
		<path id="Path 109" class="shp7" d="M152.05 934.42L152.09 924.83C151.83 923.47 152.57 922.06 154.33 921.05L260.82 859.77C263.84 858.03 268.73 858.1 271.7 859.93L352.94 909.91C354.52 910.88 355.23 912.17 355.11 913.42L355.11 923.22C355.13 923.41 355.13 923.6 355.11 923.79L355.11 923.89L355.1 923.89C354.96 924.95 354.21 925.97 352.84 926.76L246.35 988.05C243.33 989.78 238.43 989.71 235.47 987.89L154.23 937.91C152.65 936.94 151.94 935.66 152.05 934.42L152.05 934.42Z" />
		<path id="Path 110" class="shp75" d="M260.82 859.77L154.33 921.06C151.31 922.79 151.26 925.71 154.23 927.53L235.47 977.51C238.43 979.33 243.33 979.41 246.35 977.67L352.84 916.39C355.86 914.65 355.9 911.73 352.93 909.91L271.7 859.93C270.17 858.99 268.12 858.51 266.09 858.51C264.18 858.51 262.28 858.93 260.82 859.77Z" />
		<path id="Path 111" class="shp53" d="M269.66 916.53C269.36 916.71 269.21 916.92 269.18 917.16C269.16 917.4 269.27 917.61 269.52 917.78L272.04 919.58C272.29 919.76 272.58 919.85 272.93 919.84C273.29 919.84 273.61 919.75 273.91 919.57L276.97 917.71C277.27 917.53 277.44 917.33 277.46 917.09C277.5 916.85 277.4 916.65 277.15 916.48L274.62 914.68C274.38 914.5 274.08 914.41 273.71 914.41C273.35 914.4 273.02 914.49 272.72 914.67L269.66 916.53ZM254.78 893.63C254.49 893.81 254.31 894.01 254.28 894.22C254.25 894.43 254.37 894.63 254.61 894.8L255.85 895.69C256.09 895.86 256.37 895.95 256.7 895.94C257.02 895.94 257.32 895.86 257.58 895.71L257.81 895.58C259.25 894.72 260.62 894.29 261.89 894.28C263.15 894.26 264.46 894.6 265.82 895.27C267.17 895.95 268.95 897.06 271.12 898.62C273.97 900.65 277.01 901.37 280.23 900.78C279.06 902.84 279.9 904.89 282.76 906.93C284.93 908.48 286.48 909.74 287.4 910.69C288.33 911.65 288.73 912.53 288.6 913.36C288.46 914.18 287.69 915.03 286.29 915.92L286.07 916.05C285.82 916.22 285.69 916.42 285.66 916.64C285.62 916.85 285.72 917.03 285.94 917.18L287.23 918.1C287.47 918.28 287.75 918.36 288.07 918.36C288.4 918.36 288.72 918.26 289.02 918.09L289.24 917.95C291.49 916.59 292.83 915.23 293.29 913.9C293.74 912.56 293.46 911.19 292.43 909.79C291.42 908.39 289.69 906.84 287.27 905.11C286.02 904.22 285.26 903.41 284.94 902.68C284.64 901.95 284.68 901.16 285.07 900.31L285.24 900.01C285.45 899.62 285.53 899.3 285.49 899.05C285.44 898.81 285.27 898.56 284.95 898.35L284.29 897.87C283.97 897.64 283.63 897.5 283.26 897.45C282.89 897.4 282.4 897.44 281.8 897.55L281.26 897.64C279.92 897.83 278.74 897.79 277.68 897.52C276.63 897.26 275.48 896.69 274.24 895.81C271.82 894.08 269.61 892.82 267.6 892.02C265.59 891.23 263.55 890.92 261.49 891.13C259.45 891.33 257.28 892.11 255 893.5L254.78 893.63ZM258.56 923.28C258.27 923.45 258.1 923.67 258.07 923.9C258.06 924.14 258.17 924.34 258.41 924.52L260.94 926.33C261.19 926.5 261.48 926.59 261.83 926.58C262.18 926.59 262.51 926.49 262.81 926.31L265.88 924.44C266.16 924.27 266.33 924.07 266.36 923.83C266.39 923.61 266.29 923.4 266.05 923.23L263.52 921.42C263.27 921.25 262.97 921.16 262.61 921.15C262.25 921.14 261.91 921.24 261.63 921.41L258.56 923.28ZM216.94 916.61C214.69 917.98 213.32 919.33 212.85 920.68C212.4 922.03 212.68 923.4 213.71 924.78C214.75 926.18 216.48 927.73 218.89 929.46C220.14 930.34 220.91 931.16 221.2 931.9C221.5 932.64 221.46 933.44 221.05 934.29L220.9 934.58C220.68 934.97 220.59 935.3 220.63 935.53C220.67 935.78 220.84 936.02 221.13 936.23L221.83 936.72C222.12 936.93 222.45 937.06 222.83 937.1C223.2 937.16 223.71 937.13 224.34 937.03L224.83 936.93C226.19 936.75 227.39 936.79 228.46 937.05C229.53 937.3 230.69 937.88 231.93 938.77C234.34 940.49 236.55 941.74 238.56 942.53C240.55 943.31 242.59 943.61 244.66 943.43C246.72 943.23 248.88 942.46 251.13 941.09L251.4 940.93C251.66 940.77 251.82 940.57 251.86 940.35C251.9 940.13 251.81 939.93 251.57 939.76L250.28 938.84C250.06 938.68 249.78 938.62 249.44 938.63C249.1 938.64 248.78 938.72 248.5 938.87L248.28 939C246.83 939.84 245.49 940.27 244.23 940.3C242.97 940.32 241.66 939.99 240.29 939.31C238.92 938.62 237.14 937.51 234.97 935.96C232.14 933.93 229.11 933.22 225.9 933.81C227.06 931.75 226.21 929.7 223.36 927.66C221.21 926.13 219.67 924.87 218.74 923.91C217.81 922.95 217.41 922.05 217.54 921.23C217.67 920.41 218.44 919.56 219.83 918.67L220.02 918.52C220.28 918.36 220.44 918.16 220.48 917.94C220.52 917.72 220.44 917.52 220.19 917.35L218.95 916.46C218.7 916.28 218.4 916.21 218.07 916.22C217.72 916.22 217.43 916.31 217.16 916.48L216.94 916.61ZM247.46 930.01C247.16 930.2 247 930.41 246.98 930.64C246.96 930.88 247.06 931.09 247.3 931.27L249.83 933.08C250.08 933.25 250.38 933.32 250.73 933.32C251.08 933.32 251.4 933.23 251.71 933.05L254.76 931.19C255.06 931.01 255.23 930.81 255.26 930.57C255.29 930.34 255.19 930.14 254.95 929.97L252.42 928.17C252.17 927.99 251.87 927.9 251.51 927.89C251.14 927.89 250.81 927.98 250.52 928.16L247.46 930.01Z" />
		<path id="Path 112" class="shp0" d="M75.42 1078.96C73.54 1077.77 70.42 1077.69 68.48 1078.78L15.4 1108.5C13.46 1109.59 13.41 1111.45 15.29 1112.63L81.55 1154.48C83.43 1155.67 86.55 1155.74 88.49 1154.66L141.57 1124.93C143.51 1123.85 143.56 1121.99 141.68 1120.81L75.42 1078.96Z" />
		<path id="Path 113" class="shp7" d="M138.24 1119.32L138.44 1113.84C138.62 1113.07 138.23 1112.25 137.25 1111.63L77.84 1074.12C76.16 1073.06 73.36 1072.98 71.62 1073.96L24.03 1100.61C23.11 1101.12 22.67 1101.85 22.71 1102.56L22.48 1108.16C22.47 1108.27 22.46 1108.38 22.47 1108.49L22.47 1108.54L22.47 1108.54C22.53 1109.15 22.93 1109.76 23.7 1110.24L83.11 1147.75C84.79 1148.81 87.59 1148.89 89.33 1147.92L136.91 1121.27C137.84 1120.75 138.28 1120.03 138.24 1119.32L138.24 1119.32Z" />
		<path id="Path 114" class="shp76" d="M71.62 1073.96L24.03 1100.61C22.3 1101.58 22.25 1103.24 23.94 1104.31L83.35 1141.83C85.03 1142.89 87.83 1142.96 89.57 1141.99L137.16 1115.33C138.89 1114.36 138.94 1112.7 137.25 1111.63L77.84 1074.12C76.95 1073.56 75.75 1073.27 74.56 1073.27C73.5 1073.27 72.44 1073.5 71.62 1073.96Z" />
		<text id="Text layer 130" style="transform: matrix(1,0,0,1,291,302)" >
			<tspan x="0" y="0" class="txt77" dx="0 1 1 1 1 1 1 1 1" >3 picture</tspan>
		</text>
		<path id="Path 115" class="shp78" d="M74.39 1064.85L27.94 1093.43C27.04 1093.99 26.62 1094.72 26.7 1095.44L26.7 1101.04C26.68 1101.15 26.68 1101.26 26.7 1101.38L26.7 1101.43L26.7 1101.43C26.78 1102.03 27.21 1102.62 27.99 1103.07L88.89 1138.12C90.62 1139.11 93.42 1139.07 95.11 1138.03L141.57 1109.44C142.47 1108.89 142.88 1108.16 142.81 1107.45L142.81 1107.45L142.79 1101.96C142.94 1101.19 142.52 1100.38 141.51 1099.81L80.61 1064.76C79.78 1064.28 78.69 1064.04 77.6 1064.04C76.44 1064.04 75.27 1064.31 74.39 1064.85Z" />
		<path id="Path 116" class="shp79" d="M74.39 1064.85L27.94 1093.43C26.24 1094.47 26.27 1096.14 27.99 1097.14L88.89 1132.18C90.62 1133.17 93.42 1133.14 95.11 1132.09L141.57 1103.51C143.26 1102.46 143.24 1100.8 141.51 1099.81L80.61 1064.76C79.78 1064.28 78.69 1064.04 77.6 1064.04C76.44 1064.04 75.27 1064.31 74.39 1064.85Z" />
		<path id="Path 117" class="shp42" d="M95.41 1096.4C95.54 1096.48 95.61 1096.57 95.6 1096.66C95.6 1096.75 95.54 1096.83 95.39 1096.91L83.26 1103.99C83.13 1104.06 82.98 1104.1 82.83 1104.1C82.65 1104.1 82.52 1104.06 82.4 1103.99L81.53 1103.51C81.41 1103.44 81.34 1103.36 81.34 1103.28C81.35 1103.18 81.41 1103.11 81.54 1103.03L86.89 1099.91L80.59 1096.39L75.23 1099.51C75.11 1099.59 74.96 1099.62 74.8 1099.62C74.63 1099.62 74.49 1099.59 74.37 1099.52L73.5 1099.04C73.38 1098.96 73.32 1098.9 73.33 1098.8C73.34 1098.72 73.41 1098.64 73.54 1098.57L85.67 1091.49C85.81 1091.41 85.95 1091.36 86.1 1091.36C86.26 1091.36 86.39 1091.38 86.52 1091.45L87.38 1091.93C87.52 1092.01 87.58 1092.09 87.58 1092.19C87.58 1092.28 87.51 1092.36 87.37 1092.44L82.2 1095.45L88.51 1098.96L93.68 1095.95C93.81 1095.87 93.95 1095.84 94.11 1095.83C94.27 1095.83 94.42 1095.86 94.54 1095.93L95.41 1096.4Z" />
		<path id="Path 118" fill-rule="evenodd" class="shp42" d="M81.69 1089.92C81.8 1090.74 81.2 1091.53 79.92 1092.28C78.63 1093.03 77.25 1093.39 75.81 1093.35C74.35 1093.3 72.95 1092.89 71.59 1092.14L68.33 1090.32L63.64 1093.05C63.52 1093.12 63.37 1093.16 63.21 1093.16C63.05 1093.17 62.92 1093.13 62.81 1093.07L61.89 1092.56C61.77 1092.49 61.72 1092.42 61.72 1092.33C61.73 1092.24 61.8 1092.17 61.93 1092.09L74.06 1085.02C74.2 1084.93 74.34 1084.9 74.49 1084.88C74.65 1084.88 74.78 1084.9 74.91 1084.98L79.49 1087.53C80.85 1088.29 81.58 1089.08 81.69 1089.92ZM73.01 1091.21C74.83 1092.23 76.55 1092.26 78.18 1091.31C78.96 1090.85 79.35 1090.37 79.33 1089.87C79.28 1089.37 78.8 1088.87 77.89 1088.36L74.72 1086.59L69.84 1089.44L73.01 1091.21ZM106.19 1103.58C106.31 1104.41 105.7 1105.2 104.42 1105.95C103.13 1106.7 101.77 1107.06 100.31 1107.01C98.87 1106.97 97.46 1106.57 96.09 1105.81L92.83 1103.99L88.15 1106.71C88.02 1106.79 87.88 1106.83 87.73 1106.83C87.57 1106.84 87.43 1106.8 87.31 1106.73L86.41 1106.23C86.28 1106.16 86.22 1106.09 86.23 1106C86.23 1105.91 86.3 1105.83 86.43 1105.76L98.57 1098.68C98.7 1098.6 98.84 1098.56 99 1098.56C99.15 1098.55 99.29 1098.58 99.42 1098.65L104 1101.19C105.36 1101.96 106.1 1102.75 106.19 1103.58ZM97.51 1104.87C99.33 1105.89 101.07 1105.93 102.69 1104.98C103.47 1104.52 103.85 1104.04 103.83 1103.54C103.8 1103.04 103.31 1102.54 102.39 1102.02L99.22 1100.26L94.34 1103.11L97.51 1104.87Z" />
		<path id="Path 119" class="shp0" d="M309.29 1204.04C309.29 1221.84 284.44 1236.27 253.78 1236.27C223.12 1236.27 198.28 1221.84 198.28 1204.04C198.28 1186.24 223.12 1171.81 253.78 1171.81C284.44 1171.81 309.29 1186.24 309.29 1204.04Z" />
		<path id="Path 120" class="shp7" d="M305.07 1146.4L280.56 1144.39L263.1 1142.83L227.18 1143.94L204.35 1145.51L200.66 1147.97L207.08 1200.7C207.08 1200.72 207.08 1200.74 207.08 1200.76C207.08 1215.45 227.59 1227.36 252.88 1227.36C277.41 1227.36 297.42 1216.17 298.63 1202.11C298.65 1202.08 298.69 1202.03 298.69 1202.03L305.07 1146.4Z" />
		<path id="Path 121" class="shp8" d="M305.09 1147.38C305.09 1162.5 281.72 1174.75 252.88 1174.75C224.05 1174.75 200.68 1162.5 200.68 1147.38C200.68 1132.25 224.05 1119.99 252.88 1119.99C281.72 1119.99 305.09 1132.25 305.09 1147.38Z" />
		<path id="Path 122" class="shp9" d="M286.91 1147.38C286.91 1157.23 271.67 1165.22 252.88 1165.22C234.09 1165.22 218.86 1157.23 218.86 1147.38C218.86 1137.52 234.09 1129.53 252.88 1129.53C271.67 1129.53 286.91 1137.52 286.91 1147.38Z" />
		<path id="Path 123" class="shp0" d="M377.8 1018.97C376.2 1017.96 373.56 1017.89 371.92 1018.81L326.93 1044.01C325.29 1044.93 325.24 1046.51 326.84 1047.51L383 1082.97C384.59 1083.97 387.23 1084.04 388.88 1083.12L433.86 1057.93C435.5 1057.01 435.55 1055.43 433.95 1054.43L377.8 1018.97Z" />
		<path id="Path 124" class="shp7" d="M431.04 1053.17L431.21 1048.53C431.36 1047.87 431.03 1047.18 430.2 1046.65L379.86 1014.86C378.43 1013.96 376.06 1013.9 374.58 1014.73L334.25 1037.31C333.47 1037.75 333.09 1038.36 333.13 1038.97L332.94 1043.71C332.92 1043.81 332.92 1043.9 332.92 1043.99L332.92 1044.04L332.93 1044.04C332.97 1044.55 333.32 1045.06 333.96 1045.47L384.31 1077.26C385.74 1078.17 388.11 1078.23 389.58 1077.4L429.92 1054.82C430.69 1054.38 431.07 1053.77 431.03 1053.17L431.04 1053.17Z" />
		<path id="Path 125" class="shp80" d="M374.58 1014.73L334.25 1037.31C332.78 1038.13 332.74 1039.55 334.17 1040.45L384.52 1072.24C385.94 1073.14 388.32 1073.21 389.79 1072.38L430.12 1049.79C431.59 1048.97 431.63 1047.56 430.2 1046.65L379.86 1014.86C379.1 1014.39 378.08 1014.15 377.07 1014.15C376.17 1014.15 375.28 1014.34 374.58 1014.73Z" />
		<path id="Path 126" class="shp81" d="M376.93 1007L337.56 1031.23C336.79 1031.7 336.44 1032.33 336.51 1032.93L336.51 1037.68C336.5 1037.77 336.5 1037.86 336.51 1037.95L336.51 1038.01L336.51 1038.01C336.58 1038.52 336.94 1039.01 337.6 1039.4L389.22 1069.1C390.68 1069.94 393.05 1069.9 394.49 1069.02L433.86 1044.8C434.62 1044.33 434.97 1043.71 434.91 1043.11L434.89 1038.46C435.02 1037.8 434.66 1037.12 433.81 1036.63L382.2 1006.93C381.5 1006.52 380.57 1006.32 379.65 1006.32C378.66 1006.32 377.67 1006.55 376.93 1007Z" />
		<path id="Path 127" class="shp82" d="M376.93 1007L337.56 1031.23C336.12 1032.12 336.14 1033.53 337.6 1034.37L389.22 1064.08C390.68 1064.92 393.05 1064.88 394.49 1063.99L433.86 1039.77C435.3 1038.89 435.27 1037.47 433.81 1036.63L382.2 1006.93C381.5 1006.52 380.57 1006.32 379.65 1006.32C378.66 1006.32 377.67 1006.55 376.93 1007Z" />
		<path id="Path 128" class="shp42" d="M381.41 1025.05C382.35 1025.56 382.98 1026.1 383.28 1026.66C383.59 1027.23 383.61 1027.78 383.38 1028.3C383.16 1028.82 382.73 1029.28 382.13 1029.69L381.78 1029.78L381.45 1029.71L380.66 1029.28L380.48 1029.09C380.47 1029.03 380.52 1028.94 380.62 1028.85C381.3 1028.23 381.57 1027.69 381.43 1027.23C381.32 1026.76 380.86 1026.32 380.05 1025.88C378.22 1024.89 376.18 1025.03 373.97 1026.3C373.65 1026.48 373.2 1026.75 372.58 1027.12C371.95 1027.51 371.49 1027.79 371.17 1028C369.13 1029.34 369.01 1030.51 370.84 1031.5C371.64 1031.93 372.45 1032.16 373.26 1032.22C374.08 1032.26 375 1032.07 376.01 1031.66C376.18 1031.6 376.32 1031.56 376.44 1031.57L376.78 1031.65L377.56 1032.08L377.71 1032.27L377.58 1032.46C376.91 1032.84 376.13 1033.11 375.23 1033.28C374.34 1033.44 373.39 1033.45 372.39 1033.31C371.39 1033.17 370.41 1032.84 369.47 1032.34C368.07 1031.58 367.4 1030.76 367.47 1029.87C367.53 1028.99 368.23 1028.11 369.57 1027.23C369.87 1027.04 370.35 1026.74 371.03 1026.33C371.71 1025.91 372.2 1025.62 372.52 1025.43C373.98 1024.61 375.46 1024.15 377 1024.06C378.54 1023.96 380.01 1024.3 381.41 1025.05ZM401.24 1035.76C402.07 1036.22 402.6 1036.69 402.89 1037.19C403.18 1037.69 403.24 1038.17 403.08 1038.6C402.93 1039.05 402.64 1039.42 402.2 1039.71L401.84 1039.81L401.52 1039.75L400.72 1039.32L400.57 1039.14L400.66 1038.91C401.07 1038.58 401.21 1038.21 401.08 1037.77C400.94 1037.35 400.55 1036.95 399.88 1036.59C399.17 1036.2 398.44 1035.99 397.73 1035.94C397.01 1035.89 396.36 1036.04 395.79 1036.39C395.41 1036.62 395.19 1036.87 395.15 1037.13C395.09 1037.37 395.18 1037.67 395.4 1038.01C395.62 1038.35 395.99 1038.79 396.52 1039.37C397.15 1040.01 397.61 1040.55 397.85 1040.99C398.09 1041.43 398.16 1041.84 398.01 1042.21C397.86 1042.59 397.49 1042.96 396.87 1043.33C395.83 1043.97 394.65 1044.28 393.31 1044.21C391.97 1044.16 390.68 1043.78 389.39 1043.09C388.52 1042.62 387.91 1042.14 387.56 1041.61C387.21 1041.09 387.1 1040.6 387.23 1040.13C387.37 1039.66 387.69 1039.25 388.22 1038.92L388.55 1038.83L388.88 1038.9L389.66 1039.32C389.84 1039.42 389.87 1039.55 389.73 1039.73C389.35 1040.06 389.23 1040.45 389.34 1040.9C389.46 1041.35 389.92 1041.8 390.76 1042.25C391.65 1042.74 392.49 1043 393.27 1043.04C394.04 1043.07 394.72 1042.91 395.31 1042.56C395.69 1042.32 395.88 1042.08 395.9 1041.81C395.94 1041.55 395.82 1041.24 395.58 1040.9C395.34 1040.56 394.92 1040.08 394.33 1039.45C393.77 1038.87 393.38 1038.36 393.17 1037.92C392.97 1037.5 392.95 1037.1 393.1 1036.73C393.26 1036.35 393.65 1035.97 394.27 1035.6C394.87 1035.23 395.56 1034.99 396.33 1034.86C397.11 1034.74 397.92 1034.76 398.78 1034.9C399.62 1035.05 400.45 1035.33 401.24 1035.76ZM391.43 1030.46C392.25 1030.9 392.8 1031.39 393.08 1031.89C393.36 1032.39 393.42 1032.86 393.27 1033.31C393.12 1033.75 392.82 1034.11 392.38 1034.41L392.04 1034.52L391.7 1034.44L390.91 1034.02L390.76 1033.84L390.83 1033.6C391.26 1033.28 391.4 1032.91 391.27 1032.47C391.13 1032.05 390.73 1031.65 390.07 1031.29C389.36 1030.91 388.63 1030.69 387.92 1030.63C387.2 1030.59 386.55 1030.74 385.99 1031.09C385.6 1031.33 385.39 1031.57 385.33 1031.82C385.29 1032.08 385.36 1032.37 385.59 1032.71C385.8 1033.04 386.18 1033.5 386.72 1034.07C387.34 1034.71 387.79 1035.25 388.04 1035.69C388.28 1036.13 388.34 1036.53 388.2 1036.91C388.06 1037.29 387.68 1037.66 387.07 1038.04C386.02 1038.67 384.83 1038.97 383.5 1038.91C382.17 1038.86 380.86 1038.48 379.57 1037.79C378.7 1037.32 378.1 1036.83 377.74 1036.31C377.4 1035.79 377.29 1035.3 377.42 1034.84C377.56 1034.36 377.89 1033.96 378.41 1033.62L378.74 1033.53L379.07 1033.6L379.85 1034.02C380.03 1034.12 380.06 1034.25 379.92 1034.43C379.54 1034.76 379.43 1035.15 379.53 1035.6C379.64 1036.05 380.11 1036.5 380.94 1036.95C381.84 1037.43 382.67 1037.7 383.45 1037.73C384.22 1037.77 384.9 1037.6 385.49 1037.25C385.87 1037.02 386.07 1036.78 386.1 1036.51C386.13 1036.25 386.01 1035.95 385.77 1035.6C385.53 1035.26 385.11 1034.78 384.52 1034.15C383.95 1033.57 383.56 1033.05 383.36 1032.63C383.16 1032.2 383.13 1031.8 383.28 1031.42C383.46 1031.05 383.84 1030.67 384.46 1030.3C385.07 1029.92 385.75 1029.68 386.52 1029.56C387.29 1029.44 388.1 1029.45 388.96 1029.6C389.81 1029.75 390.64 1030.04 391.43 1030.46Z" />
	</g>
</svg>