<svg xmlns="http://www.w3.org/2000/svg" viewBox="0 0 138 61" width="138" height="61">
	<defs>
		<clipPath clipPathUnits="userSpaceOnUse" id="cp1">
			<path d="M0 0L138 0L138 61L0 61Z" />
		</clipPath>
	</defs>
	<style>
		tspan { white-space:pre }
		.shp0 { fill: #ff3946 } 
		.shp1 { fill: #314584 } 
	</style>
	<g id="Page 1" clip-path="url(#cp1)">
		<path id="Path 1" class="shp0" d="M40.43 61L99.76 61L99.76 49L40.43 49L40.43 61Z" />
		<path id="Path 2" fill-rule="evenodd" class="shp1" d="M27.77 8.54C30.95 11.75 32.54 16.31 32.54 22.22C32.54 28.13 30.95 32.69 27.77 35.91C24.59 39.13 20.1 40.74 14.31 40.74L0 40.74L0 3.71L14.31 3.71C20.1 3.71 24.59 5.32 27.77 8.54ZM21.85 31.4C23.63 29.28 24.52 26.23 24.52 22.22C24.52 18.22 23.63 15.16 21.85 13.05C20.07 10.94 17.43 9.88 13.91 9.88L7.74 9.88L7.74 34.57L13.91 34.57C17.43 34.57 20.07 33.51 21.85 31.4ZM63.59 16C66.11 18.58 67.37 22.15 67.37 26.71C67.37 31.27 66.11 34.85 63.59 37.43C61.06 40.01 57.54 41.3 53.01 41.3C48.49 41.3 44.96 40.01 42.44 37.43C39.91 34.85 38.65 31.27 38.65 26.71C38.65 22.15 39.91 18.58 42.44 16C44.96 13.42 48.49 12.13 53.01 12.13C57.54 12.13 61.06 13.42 63.59 16ZM48.05 20.06C46.91 21.54 46.34 23.76 46.34 26.71C46.34 29.67 46.91 31.88 48.05 33.36C49.19 34.84 50.84 35.58 53.01 35.58C55.18 35.58 56.84 34.84 57.98 33.36C59.12 31.88 59.69 29.67 59.69 26.71C59.69 23.76 59.12 21.54 57.98 20.06C56.84 18.59 55.18 17.85 53.01 17.85C50.84 17.85 49.19 18.59 48.05 20.06ZM98.03 16C100.56 18.58 101.82 22.15 101.82 26.71C101.82 31.27 100.56 34.85 98.03 37.43C95.51 40.01 91.98 41.3 87.46 41.3C82.93 41.3 79.41 40.01 76.88 37.43C74.36 34.85 73.1 31.27 73.1 26.71C73.1 22.15 74.36 18.58 76.88 16C79.41 13.42 82.93 12.13 87.46 12.13C91.98 12.13 95.51 13.42 98.03 16ZM82.49 20.06C81.35 21.54 80.78 23.76 80.78 26.71C80.78 29.67 81.35 31.88 82.49 33.36C83.63 34.84 85.29 35.58 87.46 35.58C89.63 35.58 91.28 34.84 92.42 33.36C93.56 31.88 94.13 29.67 94.13 26.71C94.13 23.76 93.56 21.54 92.42 20.06C91.28 18.59 89.63 17.85 87.46 17.85C85.29 17.85 83.63 18.59 82.49 20.06ZM134.3 16C136.43 18.58 137.5 22.17 137.5 26.77C137.5 31.33 136.43 34.89 134.3 37.46C132.17 40.02 129.23 41.3 125.49 41.3C123.29 41.3 121.37 40.75 119.74 39.64C118.12 38.54 116.89 37.05 116.07 35.18L115.79 40.74L109 40.74L109 0.4L116.69 0.4L116.69 17.29C117.55 15.68 118.72 14.42 120.22 13.5C121.72 12.58 123.47 12.13 125.49 12.13C129.23 12.13 132.17 13.42 134.3 16ZM128.07 33.16C129.23 31.67 129.81 29.52 129.81 26.71C129.81 23.91 129.23 21.76 128.07 20.26C126.91 18.77 125.29 18.02 123.2 18.02C121.32 18.02 119.81 18.67 118.65 19.98C117.49 21.29 116.84 23.12 116.69 25.48L116.69 27.95C116.84 30.34 117.49 32.18 118.65 33.47C119.81 34.76 121.32 35.41 123.2 35.41C125.29 35.41 126.91 34.66 128.07 33.16Z" />
	</g>
</svg>